<svg xmlns="http://www.w3.org/2000/svg" xmlns:xlink="http://www.w3.org/1999/xlink" width="48" zoomAndPan="magnify" viewBox="0 0 36 36.000001" height="48" preserveAspectRatio="xMidYMid meet" version="1.0"><defs><g/><clipPath id="fba8bdd848"><path d="M 16.3125 8.335938 L 20.035156 8.335938 L 20.035156 11 L 16.3125 11 Z M 16.3125 8.335938 " clip-rule="nonzero"/></clipPath><clipPath id="42912f38e1"><path d="M 16.3125 8.335938 L 18 8.335938 L 18 10 L 16.3125 10 Z M 16.3125 8.335938 " clip-rule="nonzero"/></clipPath><clipPath id="85b6c6cdb2"><path d="M 16.3125 10 L 18 10 L 18 11.6875 L 16.3125 11.6875 Z M 16.3125 10 " clip-rule="nonzero"/></clipPath><clipPath id="37e0d0b393"><path d="M 18 10 L 20 10 L 20 11.6875 L 18 11.6875 Z M 18 10 " clip-rule="nonzero"/></clipPath><clipPath id="80b6caf9d6"><path d="M 18 8.335938 L 20 8.335938 L 20 10 L 18 10 Z M 18 8.335938 " clip-rule="nonzero"/></clipPath><clipPath id="5436cb2fc2"><path d="M 6.789062 6.421875 L 30.238281 6.421875 L 30.238281 13 L 6.789062 13 Z M 6.789062 6.421875 " clip-rule="nonzero"/></clipPath></defs><g clip-path="url(#fba8bdd848)"><path fill="#ffebeb" d="M 26.132812 10.734375 C 25.78125 10.972656 25.308594 10.988281 24.929688 10.746094 C 22.984375 9.488281 19.441406 7.195312 18.75 6.746094 C 18.542969 6.613281 18.398438 6.601562 18.398438 6.601562 C 18.316406 6.601562 18.234375 6.625 18.164062 6.671875 C 18.164062 6.671875 14.027344 9.347656 11.867188 10.746094 C 11.488281 10.988281 11.015625 10.972656 10.664062 10.734375 L 18.21875 5.847656 C 18.328125 5.777344 18.46875 5.777344 18.578125 5.847656 Z M 26.132812 10.734375 " fill-opacity="1" fill-rule="evenodd"/></g><g clip-path="url(#42912f38e1)"><path fill="#e4db10" d="M 17.992188 8.539062 C 17.285156 8.539062 16.710938 9.113281 16.710938 9.820312 L 17.992188 9.820312 Z M 17.992188 8.539062 " fill-opacity="1" fill-rule="evenodd"/></g><g clip-path="url(#85b6c6cdb2)"><path fill="#e4db10" d="M 16.710938 10.414062 L 17.992188 10.414062 L 17.992188 11.695312 L 16.710938 11.695312 Z M 16.710938 10.414062 " fill-opacity="1" fill-rule="evenodd"/></g><g clip-path="url(#37e0d0b393)"><path fill="#e4db10" d="M 18.636719 10.414062 L 19.917969 10.414062 L 19.917969 11.695312 L 18.636719 11.695312 Z M 18.636719 10.414062 " fill-opacity="1" fill-rule="evenodd"/></g><g clip-path="url(#80b6caf9d6)"><path fill="#e4db10" d="M 18.636719 8.539062 C 19.34375 8.539062 19.917969 9.113281 19.917969 9.820312 L 18.636719 9.820312 Z M 18.636719 8.539062 " fill-opacity="1" fill-rule="evenodd"/></g><g clip-path="url(#5436cb2fc2)"><path fill="#cfcfcf" d="M 7.582031 12.6875 C 7.324219 12.785156 7.066406 12.882812 6.804688 12.976562 C 7.035156 12.820312 7.269531 12.675781 7.5 12.527344 L 8.203125 12.09375 C 8.671875 11.800781 9.144531 11.523438 9.617188 11.242188 C 9.984375 11.027344 10.355469 10.8125 10.726562 10.597656 L 10.726562 6.421875 L 12.6875 6.421875 L 12.6875 9.5 C 13.582031 9.007812 14.476562 8.527344 15.378906 8.054688 C 15.863281 7.800781 16.351562 7.550781 16.835938 7.300781 L 18.304688 6.558594 L 18.570312 6.421875 L 18.839844 6.558594 L 20.308594 7.300781 L 21.769531 8.054688 C 22.738281 8.566406 23.707031 9.082031 24.667969 9.613281 C 25.625 10.144531 26.582031 10.683594 27.527344 11.242188 C 28 11.523438 28.472656 11.800781 28.941406 12.089844 L 29.644531 12.527344 C 29.875 12.675781 30.109375 12.820312 30.339844 12.976562 C 30.078125 12.882812 29.820312 12.785156 29.5625 12.6875 L 28.792969 12.386719 C 28.28125 12.1875 27.773438 11.980469 27.265625 11.769531 C 26.25 11.34375 25.246094 10.90625 24.246094 10.457031 C 23.242188 10.007812 22.25 9.542969 21.257812 9.070312 L 19.777344 8.355469 L 18.570312 7.761719 L 17.367188 8.355469 C 16.871094 8.59375 16.378906 8.835938 15.882812 9.070312 C 14.894531 9.542969 13.898438 10.003906 12.898438 10.453125 C 12.828125 10.484375 12.757812 10.515625 12.6875 10.546875 C 12.339844 10.703125 11.988281 10.859375 11.632812 11.015625 C 11.050781 11.269531 10.464844 11.519531 9.878906 11.765625 C 9.371094 11.976562 8.863281 12.1875 8.351562 12.386719 Z M 7.582031 12.6875 " fill-opacity="1" fill-rule="nonzero"/></g><g fill="#b6a320" fill-opacity="1"><g transform="translate(15.907865, 21.937629)"><g><path d="M 1 0.34375 C 0.90625 0.351562 0.816406 0.347656 0.734375 0.328125 C 0.628906 0.304688 0.546875 0.25 0.484375 0.15625 C 0.429688 0.0625 0.390625 -0.0625 0.359375 -0.21875 C 0.328125 -0.4375 0.320312 -0.707031 0.34375 -1.03125 C 0.363281 -1.351562 0.414062 -1.707031 0.5 -2.09375 C 0.59375 -2.488281 0.703125 -2.910156 0.828125 -3.359375 C 0.953125 -3.816406 1.101562 -4.289062 1.28125 -4.78125 C 1.46875 -5.28125 1.664062 -5.785156 1.875 -6.296875 C 2.082031 -6.804688 2.300781 -7.304688 2.53125 -7.796875 C 2.769531 -8.285156 3.015625 -8.773438 3.265625 -9.265625 C 3.085938 -9.148438 2.898438 -9.039062 2.703125 -8.9375 C 2.503906 -8.84375 2.304688 -8.75 2.109375 -8.65625 C 1.921875 -8.5625 1.726562 -8.457031 1.53125 -8.34375 C 0.90625 -8.019531 0.394531 -7.601562 0 -7.09375 C -0.382812 -6.582031 -0.644531 -5.972656 -0.78125 -5.265625 C -0.78125 -5.253906 -0.789062 -5.242188 -0.8125 -5.234375 C -0.832031 -5.234375 -0.847656 -5.25 -0.859375 -5.28125 L -0.859375 -5.3125 C -0.828125 -5.625 -0.757812 -5.9375 -0.65625 -6.25 C -0.550781 -6.5625 -0.410156 -6.851562 -0.234375 -7.125 C -0.0546875 -7.394531 0.144531 -7.640625 0.375 -7.859375 C 0.601562 -8.078125 0.851562 -8.265625 1.125 -8.421875 C 1.320312 -8.535156 1.519531 -8.644531 1.71875 -8.75 C 1.925781 -8.851562 2.125 -8.953125 2.3125 -9.046875 C 2.5 -9.148438 2.679688 -9.257812 2.859375 -9.375 C 3.035156 -9.488281 3.207031 -9.617188 3.375 -9.765625 C 3.539062 -9.910156 3.703125 -10.078125 3.859375 -10.265625 C 3.859375 -10.273438 3.863281 -10.285156 3.875 -10.296875 C 3.914062 -10.304688 3.960938 -10.300781 4.015625 -10.28125 C 4.078125 -10.269531 4.140625 -10.25 4.203125 -10.21875 C 4.265625 -10.195312 4.316406 -10.171875 4.359375 -10.140625 C 4.410156 -10.109375 4.4375 -10.078125 4.4375 -10.046875 C 4.4375 -10.035156 4.429688 -10.03125 4.421875 -10.03125 C 4.179688 -9.664062 3.941406 -9.269531 3.703125 -8.84375 C 3.472656 -8.425781 3.25 -8 3.03125 -7.5625 C 2.820312 -7.125 2.617188 -6.679688 2.421875 -6.234375 C 2.234375 -5.785156 2.054688 -5.34375 1.890625 -4.90625 C 1.722656 -4.46875 1.566406 -4.039062 1.421875 -3.625 C 1.285156 -3.21875 1.164062 -2.832031 1.0625 -2.46875 C 0.957031 -2.101562 0.867188 -1.765625 0.796875 -1.453125 C 0.734375 -1.148438 0.6875 -0.882812 0.65625 -0.65625 C 0.632812 -0.4375 0.632812 -0.257812 0.65625 -0.125 C 0.675781 0.0078125 0.722656 0.0859375 0.796875 0.109375 C 0.859375 0.128906 0.921875 0.132812 0.984375 0.125 C 1.085938 0.113281 1.203125 0.0507812 1.328125 -0.0625 C 1.453125 -0.1875 1.585938 -0.347656 1.734375 -0.546875 C 1.878906 -0.753906 2.023438 -0.992188 2.171875 -1.265625 C 2.328125 -1.535156 2.492188 -1.828125 2.671875 -2.140625 C 2.847656 -2.453125 3.023438 -2.78125 3.203125 -3.125 C 3.378906 -3.476562 3.566406 -3.832031 3.765625 -4.1875 C 3.972656 -4.550781 4.179688 -4.910156 4.390625 -5.265625 C 4.609375 -5.628906 4.832031 -5.984375 5.0625 -6.328125 C 5.289062 -6.671875 5.53125 -6.992188 5.78125 -7.296875 C 6.03125 -7.609375 6.28125 -7.882812 6.53125 -8.125 C 6.539062 -8.132812 6.550781 -8.140625 6.5625 -8.140625 C 6.59375 -8.148438 6.628906 -8.144531 6.671875 -8.125 C 6.710938 -8.113281 6.75 -8.09375 6.78125 -8.0625 C 6.820312 -8.03125 6.859375 -8 6.890625 -7.96875 C 6.929688 -7.9375 6.953125 -7.898438 6.953125 -7.859375 C 6.953125 -7.847656 6.953125 -7.835938 6.953125 -7.828125 C 6.960938 -7.828125 6.960938 -7.828125 6.953125 -7.828125 C 6.953125 -7.816406 6.953125 -7.804688 6.953125 -7.796875 C 6.953125 -7.796875 6.945312 -7.789062 6.9375 -7.78125 C 6.9375 -7.769531 6.929688 -7.757812 6.921875 -7.75 C 6.921875 -7.738281 6.910156 -7.734375 6.890625 -7.734375 C 6.546875 -7.265625 6.25 -6.800781 6 -6.34375 C 5.75 -5.894531 5.535156 -5.460938 5.359375 -5.046875 C 5.179688 -4.640625 5.039062 -4.242188 4.9375 -3.859375 C 4.832031 -3.484375 4.753906 -3.128906 4.703125 -2.796875 C 4.660156 -2.472656 4.640625 -2.179688 4.640625 -1.921875 C 4.640625 -1.660156 4.65625 -1.445312 4.6875 -1.28125 C 4.71875 -1.132812 4.75 -1.015625 4.78125 -0.921875 C 4.820312 -0.835938 4.863281 -0.78125 4.90625 -0.75 C 4.976562 -0.726562 5.054688 -0.722656 5.140625 -0.734375 C 5.273438 -0.753906 5.414062 -0.832031 5.5625 -0.96875 C 5.707031 -1.113281 5.863281 -1.304688 6.03125 -1.546875 C 6.207031 -1.785156 6.390625 -2.0625 6.578125 -2.375 C 6.765625 -2.6875 6.957031 -3.03125 7.15625 -3.40625 C 7.363281 -3.78125 7.570312 -4.171875 7.78125 -4.578125 C 8 -4.984375 8.21875 -5.398438 8.4375 -5.828125 C 8.664062 -6.253906 8.894531 -6.679688 9.125 -7.109375 C 9.363281 -7.535156 9.609375 -7.945312 9.859375 -8.34375 C 10.109375 -8.738281 10.351562 -9.113281 10.59375 -9.46875 C 10.84375 -9.820312 11.085938 -10.140625 11.328125 -10.421875 C 11.578125 -10.710938 11.828125 -10.957031 12.078125 -11.15625 C 12.328125 -11.363281 12.578125 -11.519531 12.828125 -11.625 C 12.859375 -11.632812 12.890625 -11.644531 12.921875 -11.65625 C 12.972656 -11.664062 13.023438 -11.65625 13.078125 -11.625 C 13.128906 -11.59375 13.175781 -11.550781 13.21875 -11.5 C 13.257812 -11.457031 13.285156 -11.414062 13.296875 -11.375 C 13.035156 -11.28125 12.769531 -11.128906 12.5 -10.921875 C 12.226562 -10.722656 11.957031 -10.476562 11.6875 -10.1875 C 11.425781 -9.894531 11.164062 -9.570312 10.90625 -9.21875 C 10.65625 -8.875 10.398438 -8.503906 10.140625 -8.109375 C 9.890625 -7.710938 9.644531 -7.304688 9.40625 -6.890625 C 9.175781 -6.472656 8.941406 -6.054688 8.703125 -5.640625 C 8.472656 -5.222656 8.242188 -4.8125 8.015625 -4.40625 C 7.796875 -4 7.578125 -3.609375 7.359375 -3.234375 C 7.148438 -2.867188 6.941406 -2.523438 6.734375 -2.203125 C 6.535156 -1.890625 6.34375 -1.613281 6.15625 -1.375 C 5.976562 -1.144531 5.804688 -0.953125 5.640625 -0.796875 C 5.472656 -0.648438 5.3125 -0.566406 5.15625 -0.546875 C 5.039062 -0.523438 4.929688 -0.539062 4.828125 -0.59375 C 4.679688 -0.65625 4.566406 -0.765625 4.484375 -0.921875 C 4.410156 -1.078125 4.351562 -1.265625 4.3125 -1.484375 C 4.269531 -1.722656 4.25 -1.992188 4.25 -2.296875 C 4.257812 -2.597656 4.289062 -2.921875 4.34375 -3.265625 C 4.40625 -3.609375 4.488281 -3.960938 4.59375 -4.328125 C 4.695312 -4.703125 4.816406 -5.078125 4.953125 -5.453125 C 4.703125 -5.078125 4.460938 -4.695312 4.234375 -4.3125 C 4.003906 -3.9375 3.78125 -3.5625 3.5625 -3.1875 C 3.351562 -2.820312 3.15625 -2.472656 2.96875 -2.140625 C 2.78125 -1.804688 2.597656 -1.492188 2.421875 -1.203125 C 2.253906 -0.910156 2.085938 -0.648438 1.921875 -0.421875 C 1.753906 -0.203125 1.59375 -0.03125 1.4375 0.09375 C 1.289062 0.226562 1.144531 0.3125 1 0.34375 Z M 1 0.34375 "/></g></g></g><g fill="#619ad6" fill-opacity="1"><g transform="translate(7.898366, 22.05858)"><g><path d="M 3.15625 0.28125 C 2.425781 0.507812 1.859375 0.566406 1.453125 0.453125 C 1.054688 0.335938 0.800781 0.09375 0.6875 -0.28125 C 0.53125 -0.769531 0.625 -1.253906 0.96875 -1.734375 C 1.3125 -2.222656 1.769531 -2.671875 2.34375 -3.078125 C 2.625 -4.453125 3.128906 -6.0625 3.859375 -7.90625 C 3.835938 -7.925781 3.820312 -7.960938 3.8125 -8.015625 C 3.78125 -8.109375 3.773438 -8.175781 3.796875 -8.21875 C 3.816406 -8.269531 3.859375 -8.300781 3.921875 -8.3125 C 4.015625 -8.34375 4.125 -8.359375 4.25 -8.359375 C 4.382812 -8.367188 4.503906 -8.359375 4.609375 -8.328125 C 4.722656 -8.296875 4.785156 -8.265625 4.796875 -8.234375 C 4.804688 -8.210938 4.8125 -8.195312 4.8125 -8.1875 C 4.582031 -7.78125 4.300781 -7.160156 3.96875 -6.328125 C 3.632812 -5.492188 3.351562 -4.570312 3.125 -3.5625 C 3.613281 -3.820312 4.09375 -4.023438 4.5625 -4.171875 C 4.632812 -4.191406 4.691406 -4.203125 4.734375 -4.203125 C 4.785156 -4.203125 4.8125 -4.191406 4.8125 -4.171875 C 4.820312 -4.148438 4.773438 -4.109375 4.671875 -4.046875 C 4.566406 -3.992188 4.429688 -3.921875 4.265625 -3.828125 C 3.734375 -3.566406 3.320312 -3.335938 3.03125 -3.140625 C 2.875 -2.410156 2.832031 -1.929688 2.90625 -1.703125 C 2.945312 -1.554688 3.035156 -1.5 3.171875 -1.53125 C 3.304688 -1.582031 3.460938 -1.726562 3.640625 -1.96875 C 3.679688 -2.019531 3.707031 -2.046875 3.71875 -2.046875 C 3.726562 -2.046875 3.738281 -2.03125 3.75 -2 C 3.78125 -1.894531 3.738281 -1.765625 3.625 -1.609375 C 3.519531 -1.460938 3.378906 -1.328125 3.203125 -1.203125 C 3.035156 -1.085938 2.890625 -1.007812 2.765625 -0.96875 C 2.460938 -0.875 2.269531 -0.960938 2.1875 -1.234375 C 2.15625 -1.347656 2.140625 -1.519531 2.140625 -1.75 C 2.148438 -1.976562 2.1875 -2.21875 2.25 -2.46875 C 1.875 -2.113281 1.582031 -1.753906 1.375 -1.390625 C 1.164062 -1.035156 1.113281 -0.703125 1.21875 -0.390625 C 1.289062 -0.128906 1.46875 0.046875 1.75 0.140625 C 2.039062 0.234375 2.4375 0.203125 2.9375 0.046875 C 3.59375 -0.160156 4.304688 -0.535156 5.078125 -1.078125 C 5.859375 -1.617188 6.484375 -2.222656 6.953125 -2.890625 C 7.421875 -3.554688 7.570312 -4.15625 7.40625 -4.6875 C 7.300781 -5.007812 7.085938 -5.234375 6.765625 -5.359375 C 6.453125 -5.492188 6.109375 -5.5625 5.734375 -5.5625 C 5.367188 -5.570312 5.039062 -5.550781 4.75 -5.5 C 4.625 -5.363281 4.507812 -5.28125 4.40625 -5.25 C 4.34375 -5.226562 4.289062 -5.226562 4.25 -5.25 C 4.207031 -5.28125 4.179688 -5.320312 4.171875 -5.375 C 4.148438 -5.4375 4.148438 -5.507812 4.171875 -5.59375 C 4.191406 -5.6875 4.238281 -5.765625 4.3125 -5.828125 C 4.382812 -5.898438 4.472656 -5.953125 4.578125 -5.984375 C 4.640625 -6.003906 4.71875 -6.015625 4.8125 -6.015625 C 5.195312 -6.273438 5.535156 -6.570312 5.828125 -6.90625 C 6.117188 -7.25 6.320312 -7.585938 6.4375 -7.921875 C 6.5625 -8.265625 6.585938 -8.5625 6.515625 -8.8125 C 6.421875 -9.113281 6.171875 -9.300781 5.765625 -9.375 C 5.367188 -9.457031 4.820312 -9.390625 4.125 -9.171875 C 3.457031 -8.960938 2.769531 -8.609375 2.0625 -8.109375 C 1.351562 -7.617188 0.71875 -7.078125 0.15625 -6.484375 C 0.175781 -6.453125 0.195312 -6.40625 0.21875 -6.34375 C 0.257812 -6.21875 0.269531 -6.132812 0.25 -6.09375 C 0.21875 -6.082031 0.101562 -6 -0.09375 -5.84375 C -0.476562 -5.5 -0.722656 -5.3125 -0.828125 -5.28125 C -0.910156 -5.257812 -0.984375 -5.273438 -1.046875 -5.328125 C -1.117188 -5.378906 -1.175781 -5.441406 -1.21875 -5.515625 C -1.269531 -5.597656 -1.304688 -5.664062 -1.328125 -5.71875 C -1.359375 -5.832031 -1.265625 -6.007812 -1.046875 -6.25 C -0.828125 -6.488281 -0.546875 -6.742188 -0.203125 -7.015625 C 0.523438 -7.585938 1.273438 -8.113281 2.046875 -8.59375 C 2.816406 -9.070312 3.59375 -9.4375 4.375 -9.6875 C 4.875 -9.832031 5.316406 -9.894531 5.703125 -9.875 C 6.085938 -9.863281 6.398438 -9.78125 6.640625 -9.625 C 6.878906 -9.46875 7.035156 -9.257812 7.109375 -9 C 7.179688 -8.789062 7.1875 -8.550781 7.125 -8.28125 C 7.070312 -8.019531 6.953125 -7.75 6.765625 -7.46875 C 6.585938 -7.1875 6.34375 -6.921875 6.03125 -6.671875 C 5.84375 -6.492188 5.671875 -6.34375 5.515625 -6.21875 C 5.359375 -6.09375 5.207031 -5.976562 5.0625 -5.875 C 5.601562 -6.039062 6.09375 -6.109375 6.53125 -6.078125 C 6.96875 -6.046875 7.320312 -5.9375 7.59375 -5.75 C 7.875 -5.570312 8.054688 -5.34375 8.140625 -5.0625 C 8.347656 -4.394531 8.210938 -3.695312 7.734375 -2.96875 C 7.253906 -2.238281 6.582031 -1.578125 5.71875 -0.984375 C 4.863281 -0.398438 4.007812 0.0195312 3.15625 0.28125 Z M 3.15625 0.28125 "/></g></g></g><g fill="#737373" fill-opacity="1"><g transform="translate(1.605476, 24.818001)"><g><path d="M 1.34375 1.09375 C 1.269531 1.09375 1.210938 1.070312 1.171875 1.03125 C 1.128906 1 1.109375 0.953125 1.109375 0.890625 C 1.109375 0.804688 1.140625 0.703125 1.203125 0.578125 C 1.265625 0.460938 1.359375 0.332031 1.484375 0.1875 C 1.585938 0.0625 1.734375 -0.0703125 1.921875 -0.21875 C 2.117188 -0.375 2.316406 -0.519531 2.515625 -0.65625 C 2.554688 -0.78125 2.597656 -0.910156 2.640625 -1.046875 C 2.691406 -1.191406 2.738281 -1.320312 2.78125 -1.4375 C 2.632812 -1.21875 2.472656 -1.003906 2.296875 -0.796875 C 2.128906 -0.597656 1.957031 -0.429688 1.78125 -0.296875 C 1.601562 -0.171875 1.4375 -0.109375 1.28125 -0.109375 C 1.15625 -0.109375 1.09375 -0.164062 1.09375 -0.28125 C 1.09375 -0.34375 1.101562 -0.410156 1.125 -0.484375 C 1.15625 -0.554688 1.203125 -0.65625 1.265625 -0.78125 C 1.328125 -0.914062 1.425781 -1.101562 1.5625 -1.34375 C 1.726562 -1.644531 1.8125 -1.875 1.8125 -2.03125 C 1.8125 -2.101562 1.789062 -2.15625 1.75 -2.1875 C 1.71875 -2.226562 1.660156 -2.25 1.578125 -2.25 C 1.503906 -2.25 1.410156 -2.226562 1.296875 -2.1875 C 1.191406 -2.15625 1.066406 -2.097656 0.921875 -2.015625 C 0.742188 -1.921875 0.566406 -1.800781 0.390625 -1.65625 C 0.210938 -1.519531 0.0664062 -1.390625 -0.046875 -1.265625 C -0.0664062 -1.242188 -0.078125 -1.226562 -0.078125 -1.21875 C -0.078125 -1.21875 -0.0703125 -1.21875 -0.0625 -1.21875 C -0.0507812 -1.21875 -0.0351562 -1.21875 -0.015625 -1.21875 C -0.00390625 -1.226562 0.0078125 -1.234375 0.03125 -1.234375 C 0.0507812 -1.234375 0.0625 -1.226562 0.0625 -1.21875 C 0.0625 -1.21875 0.0546875 -1.210938 0.046875 -1.203125 C 0.0351562 -1.203125 0.0234375 -1.195312 0.015625 -1.1875 C -0.0234375 -1.164062 -0.0625 -1.15625 -0.09375 -1.15625 C -0.125 -1.15625 -0.148438 -1.164062 -0.171875 -1.1875 C -0.191406 -1.207031 -0.207031 -1.226562 -0.21875 -1.25 C -0.226562 -1.28125 -0.234375 -1.300781 -0.234375 -1.3125 C -0.234375 -1.394531 -0.113281 -1.519531 0.125 -1.6875 C 0.375 -1.863281 0.660156 -2.019531 0.984375 -2.15625 C 1.304688 -2.289062 1.578125 -2.359375 1.796875 -2.359375 C 2.003906 -2.359375 2.109375 -2.285156 2.109375 -2.140625 C 2.109375 -2.097656 2.097656 -2.046875 2.078125 -1.984375 C 2.046875 -1.878906 2 -1.769531 1.9375 -1.65625 C 1.882812 -1.539062 1.800781 -1.382812 1.6875 -1.1875 C 1.613281 -1.039062 1.550781 -0.921875 1.5 -0.828125 C 1.457031 -0.734375 1.425781 -0.65625 1.40625 -0.59375 C 1.375 -0.5 1.359375 -0.425781 1.359375 -0.375 C 1.359375 -0.300781 1.382812 -0.265625 1.4375 -0.265625 C 1.476562 -0.265625 1.523438 -0.273438 1.578125 -0.296875 C 1.628906 -0.328125 1.6875 -0.363281 1.75 -0.40625 C 1.875 -0.507812 1.988281 -0.617188 2.09375 -0.734375 C 2.207031 -0.847656 2.304688 -0.957031 2.390625 -1.0625 C 2.472656 -1.175781 2.578125 -1.316406 2.703125 -1.484375 C 2.765625 -1.566406 2.828125 -1.65625 2.890625 -1.75 C 2.953125 -1.84375 3.015625 -1.925781 3.078125 -2 C 3.140625 -2.070312 3.210938 -2.132812 3.296875 -2.1875 C 3.378906 -2.238281 3.460938 -2.265625 3.546875 -2.265625 C 3.578125 -2.265625 3.613281 -2.253906 3.65625 -2.234375 C 3.695312 -2.222656 3.734375 -2.207031 3.765625 -2.1875 C 3.796875 -2.164062 3.8125 -2.140625 3.8125 -2.109375 C 3.8125 -2.097656 3.800781 -2.085938 3.78125 -2.078125 C 3.769531 -2.066406 3.757812 -2.0625 3.75 -2.0625 C 3.75 -2.0625 3.742188 -2.0625 3.734375 -2.0625 C 3.734375 -2.070312 3.726562 -2.082031 3.71875 -2.09375 C 3.6875 -2.15625 3.640625 -2.1875 3.578125 -2.1875 C 3.492188 -2.1875 3.394531 -2.113281 3.28125 -1.96875 C 3.175781 -1.820312 3.070312 -1.640625 2.96875 -1.421875 C 2.875 -1.203125 2.789062 -0.984375 2.71875 -0.765625 C 2.78125 -0.785156 2.835938 -0.796875 2.890625 -0.796875 C 2.910156 -0.796875 2.929688 -0.789062 2.953125 -0.78125 C 2.972656 -0.78125 2.988281 -0.773438 3 -0.765625 C 3.007812 -0.753906 3.015625 -0.75 3.015625 -0.75 C 3.015625 -0.738281 3.007812 -0.726562 3 -0.71875 C 3 -0.707031 2.992188 -0.703125 2.984375 -0.703125 C 2.984375 -0.703125 2.976562 -0.703125 2.96875 -0.703125 C 2.957031 -0.710938 2.945312 -0.71875 2.9375 -0.71875 C 2.925781 -0.71875 2.898438 -0.710938 2.859375 -0.703125 C 2.816406 -0.691406 2.78125 -0.675781 2.75 -0.65625 C 2.71875 -0.644531 2.695312 -0.632812 2.6875 -0.625 C 2.664062 -0.519531 2.625 -0.390625 2.5625 -0.234375 C 2.5 -0.078125 2.421875 0.0820312 2.328125 0.25 C 2.242188 0.414062 2.160156 0.546875 2.078125 0.640625 C 1.960938 0.785156 1.835938 0.894531 1.703125 0.96875 C 1.578125 1.050781 1.457031 1.09375 1.34375 1.09375 Z M 1.3125 0.953125 C 1.382812 0.953125 1.472656 0.914062 1.578125 0.84375 C 1.679688 0.78125 1.785156 0.6875 1.890625 0.5625 C 2.140625 0.257812 2.34375 -0.0976562 2.5 -0.515625 C 2.082031 -0.222656 1.78125 0.03125 1.59375 0.25 C 1.46875 0.40625 1.375 0.535156 1.3125 0.640625 C 1.25 0.742188 1.21875 0.820312 1.21875 0.875 C 1.21875 0.925781 1.25 0.953125 1.3125 0.953125 Z M 1.3125 0.953125 "/></g></g></g><g fill="#737373" fill-opacity="1"><g transform="translate(4.704865, 24.818001)"><g><path d="M 0.265625 0.078125 C 0.203125 0.078125 0.148438 0.0546875 0.109375 0.015625 C 0.0664062 -0.015625 0.046875 -0.0664062 0.046875 -0.140625 C 0.046875 -0.234375 0.0703125 -0.335938 0.125 -0.453125 C 0.175781 -0.578125 0.238281 -0.691406 0.3125 -0.796875 C 0.394531 -0.910156 0.472656 -0.992188 0.546875 -1.046875 C 0.554688 -1.054688 0.566406 -1.0625 0.578125 -1.0625 C 0.585938 -1.070312 0.59375 -1.078125 0.59375 -1.078125 C 0.613281 -1.078125 0.628906 -1.070312 0.640625 -1.0625 C 0.660156 -1.050781 0.679688 -1.039062 0.703125 -1.03125 C 0.742188 -1.082031 0.785156 -1.109375 0.828125 -1.109375 C 0.898438 -1.109375 0.945312 -1.078125 0.96875 -1.015625 C 0.988281 -0.960938 1 -0.898438 1 -0.828125 C 1 -0.742188 0.976562 -0.644531 0.9375 -0.53125 C 0.894531 -0.425781 0.835938 -0.328125 0.765625 -0.234375 C 0.785156 -0.222656 0.804688 -0.21875 0.828125 -0.21875 C 0.890625 -0.21875 0.945312 -0.242188 1 -0.296875 C 1.0625 -0.347656 1.125 -0.414062 1.1875 -0.5 L 1.234375 -0.59375 C 1.242188 -0.59375 1.25 -0.59375 1.25 -0.59375 C 1.257812 -0.59375 1.269531 -0.585938 1.28125 -0.578125 C 1.289062 -0.566406 1.296875 -0.554688 1.296875 -0.546875 C 1.296875 -0.535156 1.289062 -0.53125 1.28125 -0.53125 L 1.21875 -0.421875 C 1.144531 -0.328125 1.078125 -0.253906 1.015625 -0.203125 C 0.953125 -0.160156 0.890625 -0.140625 0.828125 -0.140625 C 0.785156 -0.140625 0.742188 -0.148438 0.703125 -0.171875 C 0.640625 -0.0976562 0.566406 -0.0390625 0.484375 0 C 0.410156 0.0507812 0.335938 0.078125 0.265625 0.078125 Z M 0.703125 -0.328125 C 0.734375 -0.378906 0.765625 -0.441406 0.796875 -0.515625 C 0.828125 -0.597656 0.851562 -0.675781 0.875 -0.75 C 0.894531 -0.820312 0.90625 -0.882812 0.90625 -0.9375 C 0.90625 -0.957031 0.898438 -0.972656 0.890625 -0.984375 C 0.878906 -1.003906 0.867188 -1.015625 0.859375 -1.015625 C 0.835938 -1.015625 0.816406 -1.003906 0.796875 -0.984375 C 0.773438 -0.960938 0.753906 -0.929688 0.734375 -0.890625 C 0.710938 -0.835938 0.695312 -0.78125 0.6875 -0.71875 C 0.675781 -0.65625 0.671875 -0.59375 0.671875 -0.53125 C 0.671875 -0.457031 0.679688 -0.390625 0.703125 -0.328125 Z M 0.296875 0 C 0.390625 0 0.503906 -0.0820312 0.640625 -0.25 C 0.617188 -0.289062 0.597656 -0.335938 0.578125 -0.390625 C 0.566406 -0.441406 0.5625 -0.503906 0.5625 -0.578125 C 0.5625 -0.679688 0.578125 -0.78125 0.609375 -0.875 C 0.554688 -0.820312 0.5 -0.75 0.4375 -0.65625 C 0.382812 -0.570312 0.335938 -0.476562 0.296875 -0.375 C 0.253906 -0.28125 0.234375 -0.1875 0.234375 -0.09375 C 0.234375 -0.0625 0.238281 -0.0351562 0.25 -0.015625 C 0.257812 -0.00390625 0.273438 0 0.296875 0 Z M 0.296875 0 "/></g></g></g><g fill="#737373" fill-opacity="1"><g transform="translate(5.756609, 24.818001)"><g><path d="M 1.140625 0.03125 C 1.097656 0.03125 1.0625 0.0195312 1.03125 0 C 1.007812 -0.03125 1 -0.078125 1 -0.140625 C 1 -0.210938 1.015625 -0.289062 1.046875 -0.375 C 1.078125 -0.46875 1.113281 -0.550781 1.15625 -0.625 C 1.132812 -0.601562 1.109375 -0.566406 1.078125 -0.515625 C 1.046875 -0.472656 1.019531 -0.441406 1 -0.421875 C 0.8125 -0.128906 0.664062 0.015625 0.5625 0.015625 C 0.539062 0.015625 0.507812 0.0078125 0.46875 0 C 0.4375 -0.0078125 0.40625 -0.03125 0.375 -0.0625 C 0.351562 -0.09375 0.34375 -0.128906 0.34375 -0.171875 C 0.34375 -0.234375 0.359375 -0.304688 0.390625 -0.390625 C 0.429688 -0.472656 0.484375 -0.578125 0.546875 -0.703125 C 0.597656 -0.804688 0.632812 -0.878906 0.65625 -0.921875 C 0.65625 -0.941406 0.65625 -0.957031 0.65625 -0.96875 C 0.65625 -0.988281 0.644531 -1 0.625 -1 C 0.59375 -1 0.554688 -0.972656 0.515625 -0.921875 C 0.472656 -0.878906 0.414062 -0.804688 0.34375 -0.703125 L 0.125 -0.375 C 0.101562 -0.351562 0.09375 -0.34375 0.09375 -0.34375 C 0.0820312 -0.34375 0.0703125 -0.347656 0.0625 -0.359375 C 0.0625 -0.367188 0.0625 -0.378906 0.0625 -0.390625 C 0.0625 -0.410156 0.0664062 -0.425781 0.078125 -0.4375 C 0.171875 -0.570312 0.234375 -0.671875 0.265625 -0.734375 L 0.5 -1.109375 C 0.507812 -1.117188 0.523438 -1.125 0.546875 -1.125 C 0.566406 -1.132812 0.585938 -1.140625 0.609375 -1.140625 C 0.648438 -1.140625 0.6875 -1.128906 0.71875 -1.109375 C 0.757812 -1.097656 0.789062 -1.078125 0.8125 -1.046875 C 0.84375 -1.023438 0.859375 -1 0.859375 -0.96875 C 0.859375 -0.9375 0.847656 -0.898438 0.828125 -0.859375 C 0.816406 -0.828125 0.796875 -0.785156 0.765625 -0.734375 C 0.722656 -0.648438 0.675781 -0.5625 0.625 -0.46875 C 0.601562 -0.414062 0.578125 -0.351562 0.546875 -0.28125 C 0.515625 -0.207031 0.5 -0.148438 0.5 -0.109375 C 0.5 -0.0859375 0.507812 -0.078125 0.53125 -0.078125 C 0.550781 -0.078125 0.59375 -0.101562 0.65625 -0.15625 C 0.820312 -0.28125 1.003906 -0.5 1.203125 -0.8125 C 1.234375 -0.863281 1.25 -0.890625 1.25 -0.890625 C 1.257812 -0.890625 1.273438 -0.878906 1.296875 -0.859375 C 1.316406 -0.847656 1.332031 -0.828125 1.34375 -0.796875 C 1.363281 -0.773438 1.375 -0.753906 1.375 -0.734375 C 1.375 -0.710938 1.375 -0.695312 1.375 -0.6875 C 1.25 -0.507812 1.1875 -0.351562 1.1875 -0.21875 C 1.1875 -0.164062 1.207031 -0.140625 1.25 -0.140625 C 1.289062 -0.140625 1.335938 -0.164062 1.390625 -0.21875 C 1.441406 -0.269531 1.5 -0.335938 1.5625 -0.421875 C 1.582031 -0.441406 1.617188 -0.484375 1.671875 -0.546875 C 1.679688 -0.566406 1.691406 -0.578125 1.703125 -0.578125 C 1.710938 -0.578125 1.71875 -0.570312 1.71875 -0.5625 C 1.726562 -0.5625 1.734375 -0.554688 1.734375 -0.546875 C 1.734375 -0.535156 1.722656 -0.515625 1.703125 -0.484375 C 1.691406 -0.460938 1.664062 -0.421875 1.625 -0.359375 C 1.582031 -0.296875 1.546875 -0.253906 1.515625 -0.234375 C 1.347656 -0.0546875 1.222656 0.03125 1.140625 0.03125 Z M 1.140625 0.03125 "/></g></g></g><g fill="#737373" fill-opacity="1"><g transform="translate(7.267522, 24.818001)"><g><path d="M 0.546875 0.046875 C 0.441406 0.046875 0.390625 -0.015625 0.390625 -0.140625 C 0.390625 -0.191406 0.394531 -0.242188 0.40625 -0.296875 C 0.425781 -0.359375 0.445312 -0.410156 0.46875 -0.453125 C 0.519531 -0.578125 0.59375 -0.71875 0.6875 -0.875 C 0.664062 -0.875 0.644531 -0.875 0.625 -0.875 C 0.59375 -0.875 0.5625 -0.875 0.53125 -0.875 C 0.507812 -0.882812 0.492188 -0.894531 0.484375 -0.90625 C 0.453125 -0.875 0.40625 -0.804688 0.34375 -0.703125 C 0.257812 -0.578125 0.195312 -0.488281 0.15625 -0.4375 C 0.125 -0.394531 0.101562 -0.375 0.09375 -0.375 C 0.0820312 -0.375 0.0703125 -0.375 0.0625 -0.375 C 0.0625 -0.382812 0.0625 -0.394531 0.0625 -0.40625 C 0.0625 -0.414062 0.0664062 -0.425781 0.078125 -0.4375 C 0.191406 -0.601562 0.296875 -0.773438 0.390625 -0.953125 C 0.359375 -0.972656 0.34375 -1.003906 0.34375 -1.046875 C 0.34375 -1.078125 0.351562 -1.113281 0.375 -1.15625 C 0.394531 -1.195312 0.421875 -1.226562 0.453125 -1.25 C 0.492188 -1.28125 0.546875 -1.296875 0.609375 -1.296875 C 0.628906 -1.296875 0.644531 -1.289062 0.65625 -1.28125 C 0.664062 -1.28125 0.671875 -1.269531 0.671875 -1.25 C 0.671875 -1.21875 0.640625 -1.15625 0.578125 -1.0625 C 0.566406 -1.050781 0.554688 -1.035156 0.546875 -1.015625 C 0.535156 -1.003906 0.53125 -0.992188 0.53125 -0.984375 C 0.53125 -0.972656 0.546875 -0.960938 0.578125 -0.953125 C 0.609375 -0.941406 0.644531 -0.9375 0.6875 -0.9375 C 0.695312 -0.9375 0.710938 -0.941406 0.734375 -0.953125 C 0.765625 -0.960938 0.796875 -0.96875 0.828125 -0.96875 C 0.859375 -0.96875 0.882812 -0.957031 0.90625 -0.9375 C 0.925781 -0.925781 0.9375 -0.914062 0.9375 -0.90625 C 0.9375 -0.875 0.921875 -0.835938 0.890625 -0.796875 C 0.835938 -0.742188 0.785156 -0.679688 0.734375 -0.609375 C 0.691406 -0.535156 0.65625 -0.457031 0.625 -0.375 C 0.59375 -0.300781 0.578125 -0.234375 0.578125 -0.171875 C 0.578125 -0.128906 0.59375 -0.109375 0.625 -0.109375 C 0.65625 -0.109375 0.6875 -0.113281 0.71875 -0.125 C 0.757812 -0.144531 0.804688 -0.1875 0.859375 -0.25 C 0.921875 -0.320312 1 -0.425781 1.09375 -0.5625 C 1.101562 -0.570312 1.109375 -0.578125 1.109375 -0.578125 C 1.117188 -0.585938 1.125 -0.59375 1.125 -0.59375 C 1.132812 -0.59375 1.140625 -0.585938 1.140625 -0.578125 C 1.148438 -0.566406 1.15625 -0.554688 1.15625 -0.546875 C 1.15625 -0.546875 1.148438 -0.535156 1.140625 -0.515625 C 1.035156 -0.359375 0.929688 -0.222656 0.828125 -0.109375 C 0.734375 -0.00390625 0.640625 0.046875 0.546875 0.046875 Z M 0.546875 0.046875 "/></g></g></g><g fill="#737373" fill-opacity="1"><g transform="translate(8.195168, 24.818001)"><g/></g></g><g fill="#737373" fill-opacity="1"><g transform="translate(8.815669, 24.818001)"><g><path d="M 1.3125 0.65625 C 1.289062 0.65625 1.265625 0.644531 1.234375 0.625 C 1.203125 0.613281 1.171875 0.597656 1.140625 0.578125 C 1.117188 0.554688 1.109375 0.53125 1.109375 0.5 C 1.109375 0.457031 1.125 0.410156 1.15625 0.359375 C 1.195312 0.285156 1.253906 0.191406 1.328125 0.078125 C 1.410156 -0.0234375 1.488281 -0.128906 1.5625 -0.234375 C 1.582031 -0.265625 1.625 -0.320312 1.6875 -0.40625 C 1.75 -0.488281 1.800781 -0.5625 1.84375 -0.625 L 1.953125 -0.78125 C 1.742188 -0.75 1.5625 -0.707031 1.40625 -0.65625 C 1.257812 -0.601562 1.128906 -0.546875 1.015625 -0.484375 C 0.898438 -0.429688 0.765625 -0.363281 0.609375 -0.28125 C 0.554688 -0.257812 0.53125 -0.25 0.53125 -0.25 C 0.507812 -0.25 0.488281 -0.253906 0.46875 -0.265625 C 0.457031 -0.285156 0.445312 -0.304688 0.4375 -0.328125 C 0.4375 -0.359375 0.4375 -0.382812 0.4375 -0.40625 C 0.4375 -0.414062 0.453125 -0.425781 0.484375 -0.4375 C 0.523438 -0.457031 0.5625 -0.472656 0.59375 -0.484375 C 0.632812 -0.503906 0.660156 -0.515625 0.671875 -0.515625 C 0.691406 -0.515625 0.703125 -0.515625 0.703125 -0.515625 C 0.703125 -0.515625 0.703125 -0.507812 0.703125 -0.5 C 0.972656 -0.601562 1.179688 -0.679688 1.328125 -0.734375 C 1.484375 -0.785156 1.613281 -0.820312 1.71875 -0.84375 C 1.820312 -0.875 1.925781 -0.898438 2.03125 -0.921875 C 2.125 -1.054688 2.203125 -1.175781 2.265625 -1.28125 C 2.328125 -1.382812 2.375 -1.484375 2.40625 -1.578125 C 2.445312 -1.679688 2.46875 -1.773438 2.46875 -1.859375 C 2.46875 -1.953125 2.441406 -2.019531 2.390625 -2.0625 C 2.347656 -2.101562 2.273438 -2.125 2.171875 -2.125 C 1.992188 -2.125 1.804688 -2.09375 1.609375 -2.03125 C 1.421875 -1.96875 1.234375 -1.878906 1.046875 -1.765625 C 0.867188 -1.660156 0.703125 -1.539062 0.546875 -1.40625 C 0.554688 -1.375 0.5625 -1.347656 0.5625 -1.328125 C 0.5625 -1.316406 0.5625 -1.304688 0.5625 -1.296875 C 0.550781 -1.296875 0.523438 -1.28125 0.484375 -1.25 C 0.410156 -1.195312 0.351562 -1.15625 0.3125 -1.125 C 0.269531 -1.101562 0.238281 -1.09375 0.21875 -1.09375 C 0.1875 -1.09375 0.160156 -1.101562 0.140625 -1.125 C 0.128906 -1.144531 0.117188 -1.164062 0.109375 -1.1875 C 0.109375 -1.21875 0.109375 -1.238281 0.109375 -1.25 C 0.109375 -1.289062 0.140625 -1.335938 0.203125 -1.390625 C 0.273438 -1.453125 0.363281 -1.515625 0.46875 -1.578125 C 0.675781 -1.710938 0.875 -1.828125 1.0625 -1.921875 C 1.25 -2.015625 1.441406 -2.085938 1.640625 -2.140625 C 1.835938 -2.203125 2.03125 -2.234375 2.21875 -2.234375 C 2.382812 -2.234375 2.503906 -2.207031 2.578125 -2.15625 C 2.660156 -2.101562 2.703125 -2.019531 2.703125 -1.90625 C 2.703125 -1.800781 2.65625 -1.660156 2.5625 -1.484375 C 2.476562 -1.316406 2.363281 -1.132812 2.21875 -0.9375 C 2.3125 -0.945312 2.421875 -0.953125 2.546875 -0.953125 C 2.609375 -0.953125 2.65625 -0.941406 2.6875 -0.921875 C 2.726562 -0.910156 2.75 -0.878906 2.75 -0.828125 C 2.75 -0.796875 2.738281 -0.757812 2.71875 -0.71875 C 2.707031 -0.6875 2.6875 -0.65625 2.65625 -0.625 C 2.632812 -0.59375 2.617188 -0.578125 2.609375 -0.578125 C 2.597656 -0.578125 2.59375 -0.582031 2.59375 -0.59375 C 2.59375 -0.59375 2.597656 -0.597656 2.609375 -0.609375 C 2.628906 -0.648438 2.640625 -0.6875 2.640625 -0.71875 C 2.640625 -0.757812 2.617188 -0.785156 2.578125 -0.796875 C 2.535156 -0.816406 2.476562 -0.828125 2.40625 -0.828125 C 2.320312 -0.828125 2.238281 -0.820312 2.15625 -0.8125 C 2.132812 -0.769531 2.097656 -0.71875 2.046875 -0.65625 C 1.992188 -0.59375 1.90625 -0.472656 1.78125 -0.296875 C 1.664062 -0.128906 1.554688 0.03125 1.453125 0.1875 C 1.359375 0.351562 1.3125 0.460938 1.3125 0.515625 C 1.3125 0.535156 1.316406 0.5625 1.328125 0.59375 C 1.335938 0.625 1.34375 0.640625 1.34375 0.640625 C 1.34375 0.648438 1.332031 0.65625 1.3125 0.65625 Z M 1.3125 0.65625 "/></g></g></g><g fill="#737373" fill-opacity="1"><g transform="translate(11.707192, 24.818001)"><g><path d="M 0.765625 0.046875 C 0.734375 0.046875 0.703125 0.03125 0.671875 0 C 0.648438 -0.03125 0.640625 -0.078125 0.640625 -0.140625 C 0.640625 -0.210938 0.65625 -0.289062 0.6875 -0.375 C 0.71875 -0.457031 0.753906 -0.539062 0.796875 -0.625 C 0.765625 -0.59375 0.710938 -0.523438 0.640625 -0.421875 C 0.546875 -0.285156 0.460938 -0.175781 0.390625 -0.09375 C 0.328125 -0.0195312 0.265625 0.015625 0.203125 0.015625 C 0.160156 0.015625 0.117188 0 0.078125 -0.03125 C 0.046875 -0.0625 0.03125 -0.113281 0.03125 -0.1875 C 0.03125 -0.25 0.046875 -0.320312 0.078125 -0.40625 C 0.117188 -0.5 0.171875 -0.597656 0.234375 -0.703125 C 0.285156 -0.773438 0.347656 -0.84375 0.421875 -0.90625 C 0.492188 -0.96875 0.570312 -1.015625 0.65625 -1.046875 C 0.738281 -1.085938 0.8125 -1.109375 0.875 -1.109375 C 0.90625 -1.109375 0.941406 -1.101562 0.984375 -1.09375 C 1.023438 -1.082031 1.0625 -1.066406 1.09375 -1.046875 C 1.125 -1.035156 1.140625 -1.015625 1.140625 -0.984375 C 1.140625 -0.984375 1.132812 -0.976562 1.125 -0.96875 C 1.113281 -0.96875 1.101562 -0.96875 1.09375 -0.96875 C 1.039062 -1 0.992188 -1.015625 0.953125 -1.015625 C 0.878906 -1.015625 0.796875 -0.988281 0.703125 -0.9375 C 0.609375 -0.882812 0.515625 -0.789062 0.421875 -0.65625 C 0.316406 -0.507812 0.242188 -0.398438 0.203125 -0.328125 C 0.171875 -0.253906 0.15625 -0.195312 0.15625 -0.15625 C 0.15625 -0.125 0.171875 -0.109375 0.203125 -0.109375 C 0.222656 -0.109375 0.253906 -0.125 0.296875 -0.15625 C 0.378906 -0.226562 0.460938 -0.3125 0.546875 -0.40625 C 0.628906 -0.5 0.695312 -0.585938 0.75 -0.671875 C 0.800781 -0.753906 0.835938 -0.820312 0.859375 -0.875 C 0.859375 -0.882812 0.867188 -0.890625 0.890625 -0.890625 C 0.898438 -0.890625 0.914062 -0.878906 0.9375 -0.859375 C 0.957031 -0.847656 0.972656 -0.832031 0.984375 -0.8125 C 1.003906 -0.789062 1.015625 -0.765625 1.015625 -0.734375 C 1.015625 -0.722656 1.007812 -0.707031 1 -0.6875 C 0.957031 -0.601562 0.914062 -0.519531 0.875 -0.4375 C 0.84375 -0.351562 0.828125 -0.28125 0.828125 -0.21875 C 0.828125 -0.15625 0.847656 -0.125 0.890625 -0.125 C 0.921875 -0.125 0.957031 -0.144531 1 -0.1875 C 1.039062 -0.238281 1.101562 -0.3125 1.1875 -0.40625 C 1.25 -0.476562 1.285156 -0.523438 1.296875 -0.546875 C 1.316406 -0.566406 1.332031 -0.578125 1.34375 -0.578125 C 1.351562 -0.578125 1.359375 -0.570312 1.359375 -0.5625 C 1.367188 -0.5625 1.375 -0.554688 1.375 -0.546875 C 1.375 -0.546875 1.359375 -0.523438 1.328125 -0.484375 C 1.273438 -0.398438 1.21875 -0.316406 1.15625 -0.234375 C 1.09375 -0.160156 1.023438 -0.09375 0.953125 -0.03125 C 0.890625 0.0195312 0.828125 0.046875 0.765625 0.046875 Z M 0.765625 0.046875 "/></g></g></g><g fill="#737373" fill-opacity="1"><g transform="translate(12.85201, 24.818001)"><g><path d="M 0.328125 0.03125 C 0.296875 0.03125 0.265625 0.0234375 0.234375 0.015625 C 0.210938 0.00390625 0.203125 -0.00390625 0.203125 -0.015625 C 0.203125 -0.0234375 0.207031 -0.03125 0.21875 -0.03125 L 0.265625 -0.140625 C 0.359375 -0.296875 0.4375 -0.429688 0.5 -0.546875 C 0.5625 -0.671875 0.613281 -0.796875 0.65625 -0.921875 C 0.65625 -0.929688 0.65625 -0.945312 0.65625 -0.96875 C 0.65625 -0.976562 0.648438 -0.984375 0.640625 -0.984375 C 0.640625 -0.992188 0.632812 -1 0.625 -1 C 0.59375 -1 0.554688 -0.972656 0.515625 -0.921875 C 0.472656 -0.878906 0.414062 -0.804688 0.34375 -0.703125 C 0.28125 -0.609375 0.207031 -0.503906 0.125 -0.390625 C 0.101562 -0.359375 0.09375 -0.34375 0.09375 -0.34375 C 0.0820312 -0.34375 0.0703125 -0.347656 0.0625 -0.359375 C 0.0625 -0.367188 0.0625 -0.382812 0.0625 -0.40625 C 0.0625 -0.414062 0.0664062 -0.425781 0.078125 -0.4375 C 0.179688 -0.59375 0.242188 -0.691406 0.265625 -0.734375 L 0.5 -1.109375 C 0.507812 -1.117188 0.523438 -1.125 0.546875 -1.125 C 0.566406 -1.132812 0.585938 -1.140625 0.609375 -1.140625 C 0.648438 -1.140625 0.6875 -1.128906 0.71875 -1.109375 C 0.757812 -1.097656 0.789062 -1.078125 0.8125 -1.046875 C 0.84375 -1.023438 0.859375 -1 0.859375 -0.96875 C 0.859375 -0.925781 0.847656 -0.882812 0.828125 -0.84375 C 0.804688 -0.800781 0.78125 -0.75 0.75 -0.6875 C 0.71875 -0.632812 0.695312 -0.597656 0.6875 -0.578125 C 0.78125 -0.703125 0.875 -0.804688 0.96875 -0.890625 C 1.070312 -0.972656 1.164062 -1.015625 1.25 -1.015625 C 1.300781 -1.015625 1.335938 -0.992188 1.359375 -0.953125 C 1.378906 -0.921875 1.390625 -0.875 1.390625 -0.8125 C 1.390625 -0.769531 1.382812 -0.726562 1.375 -0.6875 C 1.375 -0.644531 1.367188 -0.609375 1.359375 -0.578125 L 1.328125 -0.5 C 1.410156 -0.59375 1.46875 -0.660156 1.5 -0.703125 C 1.539062 -0.753906 1.570312 -0.785156 1.59375 -0.796875 C 1.625 -0.828125 1.660156 -0.859375 1.703125 -0.890625 C 1.753906 -0.921875 1.800781 -0.9375 1.84375 -0.9375 C 1.882812 -0.9375 1.914062 -0.921875 1.9375 -0.890625 C 1.96875 -0.867188 1.984375 -0.832031 1.984375 -0.78125 C 1.984375 -0.757812 1.976562 -0.710938 1.96875 -0.640625 C 1.957031 -0.628906 1.945312 -0.582031 1.9375 -0.5 C 1.9375 -0.425781 1.9375 -0.359375 1.9375 -0.296875 C 1.9375 -0.242188 1.9375 -0.203125 1.9375 -0.171875 C 1.945312 -0.148438 1.960938 -0.140625 1.984375 -0.140625 C 2.015625 -0.140625 2.054688 -0.164062 2.109375 -0.21875 C 2.160156 -0.28125 2.234375 -0.363281 2.328125 -0.46875 C 2.378906 -0.539062 2.410156 -0.578125 2.421875 -0.578125 C 2.429688 -0.578125 2.4375 -0.570312 2.4375 -0.5625 C 2.445312 -0.5625 2.453125 -0.554688 2.453125 -0.546875 C 2.453125 -0.535156 2.421875 -0.488281 2.359375 -0.40625 C 2.304688 -0.332031 2.257812 -0.269531 2.21875 -0.21875 C 2.15625 -0.15625 2.097656 -0.0976562 2.046875 -0.046875 C 1.992188 -0.00390625 1.945312 0.015625 1.90625 0.015625 C 1.84375 0.015625 1.800781 -0.0078125 1.78125 -0.0625 C 1.757812 -0.125 1.75 -0.203125 1.75 -0.296875 C 1.75 -0.359375 1.753906 -0.421875 1.765625 -0.484375 C 1.765625 -0.566406 1.765625 -0.625 1.765625 -0.65625 C 1.765625 -0.695312 1.757812 -0.726562 1.75 -0.75 C 1.75 -0.769531 1.738281 -0.78125 1.71875 -0.78125 C 1.6875 -0.78125 1.644531 -0.757812 1.59375 -0.71875 C 1.550781 -0.675781 1.492188 -0.609375 1.421875 -0.515625 C 1.390625 -0.472656 1.359375 -0.425781 1.328125 -0.375 C 1.296875 -0.332031 1.265625 -0.289062 1.234375 -0.25 C 1.191406 -0.1875 1.171875 -0.148438 1.171875 -0.140625 C 1.140625 -0.109375 1.109375 -0.0820312 1.078125 -0.0625 C 1.054688 -0.0507812 1.035156 -0.046875 1.015625 -0.046875 C 1.003906 -0.046875 0.988281 -0.0507812 0.96875 -0.0625 C 0.957031 -0.0820312 0.953125 -0.101562 0.953125 -0.125 C 0.953125 -0.144531 0.957031 -0.171875 0.96875 -0.203125 C 0.988281 -0.234375 1.003906 -0.265625 1.015625 -0.296875 C 1.035156 -0.328125 1.050781 -0.359375 1.0625 -0.390625 C 1.113281 -0.503906 1.15625 -0.597656 1.1875 -0.671875 C 1.21875 -0.742188 1.234375 -0.800781 1.234375 -0.84375 C 1.234375 -0.863281 1.226562 -0.882812 1.21875 -0.90625 C 1.207031 -0.925781 1.191406 -0.9375 1.171875 -0.9375 C 1.148438 -0.9375 1.113281 -0.921875 1.0625 -0.890625 C 1.007812 -0.859375 0.96875 -0.820312 0.9375 -0.78125 C 0.882812 -0.71875 0.820312 -0.640625 0.75 -0.546875 C 0.675781 -0.453125 0.609375 -0.351562 0.546875 -0.25 C 0.484375 -0.15625 0.429688 -0.0703125 0.390625 0 C 0.390625 0.0195312 0.367188 0.03125 0.328125 0.03125 Z M 0.328125 0.03125 "/></g></g></g><g fill="#737373" fill-opacity="1"><g transform="translate(15.073394, 24.818001)"><g><path d="M 0.546875 -1.1875 C 0.523438 -1.1875 0.503906 -1.203125 0.484375 -1.234375 C 0.472656 -1.265625 0.46875 -1.289062 0.46875 -1.3125 C 0.46875 -1.332031 0.472656 -1.347656 0.484375 -1.359375 L 0.515625 -1.359375 C 0.554688 -1.359375 0.601562 -1.359375 0.65625 -1.359375 C 0.707031 -1.367188 0.742188 -1.382812 0.765625 -1.40625 C 0.773438 -1.40625 0.785156 -1.40625 0.796875 -1.40625 C 0.796875 -1.40625 0.796875 -1.398438 0.796875 -1.390625 C 0.796875 -1.390625 0.796875 -1.382812 0.796875 -1.375 C 0.796875 -1.363281 0.789062 -1.359375 0.78125 -1.359375 C 0.757812 -1.347656 0.738281 -1.332031 0.71875 -1.3125 C 0.6875 -1.269531 0.65625 -1.238281 0.625 -1.21875 C 0.59375 -1.195312 0.566406 -1.1875 0.546875 -1.1875 Z M 0.171875 0.046875 C 0.128906 0.046875 0.09375 0.03125 0.0625 0 C 0.0390625 -0.03125 0.03125 -0.078125 0.03125 -0.140625 C 0.03125 -0.179688 0.0351562 -0.222656 0.046875 -0.265625 C 0.0664062 -0.316406 0.0859375 -0.367188 0.109375 -0.421875 C 0.148438 -0.523438 0.203125 -0.640625 0.265625 -0.765625 C 0.328125 -0.898438 0.363281 -0.972656 0.375 -0.984375 C 0.382812 -0.992188 0.398438 -1 0.421875 -1 C 0.441406 -1 0.460938 -0.988281 0.484375 -0.96875 C 0.503906 -0.945312 0.515625 -0.921875 0.515625 -0.890625 C 0.515625 -0.859375 0.507812 -0.832031 0.5 -0.8125 C 0.476562 -0.789062 0.445312 -0.742188 0.40625 -0.671875 C 0.363281 -0.609375 0.320312 -0.535156 0.28125 -0.453125 C 0.25 -0.378906 0.226562 -0.316406 0.21875 -0.265625 C 0.21875 -0.253906 0.21875 -0.234375 0.21875 -0.203125 C 0.21875 -0.160156 0.234375 -0.140625 0.265625 -0.140625 C 0.296875 -0.140625 0.328125 -0.148438 0.359375 -0.171875 C 0.398438 -0.203125 0.445312 -0.242188 0.5 -0.296875 C 0.539062 -0.335938 0.613281 -0.4375 0.71875 -0.59375 C 0.726562 -0.601562 0.738281 -0.609375 0.75 -0.609375 C 0.757812 -0.609375 0.765625 -0.601562 0.765625 -0.59375 C 0.773438 -0.59375 0.78125 -0.585938 0.78125 -0.578125 C 0.78125 -0.566406 0.773438 -0.550781 0.765625 -0.53125 C 0.722656 -0.457031 0.648438 -0.351562 0.546875 -0.21875 C 0.484375 -0.144531 0.414062 -0.0820312 0.34375 -0.03125 C 0.28125 0.0195312 0.222656 0.046875 0.171875 0.046875 Z M 0.171875 0.046875 "/></g></g></g><g fill="#737373" fill-opacity="1"><g transform="translate(15.613227, 24.818001)"><g><path d="M 0.296875 0.046875 C 0.210938 0.046875 0.148438 0.0234375 0.109375 -0.015625 C 0.078125 -0.0664062 0.0625 -0.128906 0.0625 -0.203125 C 0.0625 -0.285156 0.078125 -0.378906 0.109375 -0.484375 C 0.148438 -0.597656 0.21875 -0.734375 0.3125 -0.890625 C 0.445312 -1.117188 0.582031 -1.332031 0.71875 -1.53125 C 0.863281 -1.726562 0.992188 -1.882812 1.109375 -2 C 1.222656 -2.125 1.316406 -2.1875 1.390625 -2.1875 C 1.410156 -2.1875 1.441406 -2.175781 1.484375 -2.15625 C 1.535156 -2.132812 1.582031 -2.101562 1.625 -2.0625 C 1.664062 -2.03125 1.6875 -2.003906 1.6875 -1.984375 C 1.6875 -1.960938 1.671875 -1.925781 1.640625 -1.875 C 1.609375 -1.832031 1.566406 -1.78125 1.515625 -1.71875 C 1.398438 -1.59375 1.234375 -1.429688 1.015625 -1.234375 C 0.804688 -1.046875 0.613281 -0.890625 0.4375 -0.765625 C 0.3125 -0.535156 0.25 -0.347656 0.25 -0.203125 C 0.25 -0.109375 0.28125 -0.0625 0.34375 -0.0625 C 0.425781 -0.0625 0.515625 -0.0976562 0.609375 -0.171875 C 0.710938 -0.253906 0.832031 -0.390625 0.96875 -0.578125 C 0.976562 -0.585938 0.988281 -0.59375 1 -0.59375 C 1.007812 -0.59375 1.015625 -0.585938 1.015625 -0.578125 C 1.015625 -0.566406 1.015625 -0.554688 1.015625 -0.546875 C 1.015625 -0.535156 1.007812 -0.523438 1 -0.515625 C 0.945312 -0.410156 0.878906 -0.316406 0.796875 -0.234375 C 0.722656 -0.148438 0.640625 -0.0820312 0.546875 -0.03125 C 0.460938 0.0195312 0.378906 0.046875 0.296875 0.046875 Z M 0.53125 -0.921875 C 0.78125 -1.140625 1.007812 -1.351562 1.21875 -1.5625 C 1.425781 -1.769531 1.53125 -1.90625 1.53125 -1.96875 C 1.53125 -1.988281 1.519531 -2.003906 1.5 -2.015625 C 1.488281 -2.023438 1.472656 -2.03125 1.453125 -2.03125 C 1.378906 -2.03125 1.269531 -1.941406 1.125 -1.765625 C 0.976562 -1.597656 0.820312 -1.382812 0.65625 -1.125 Z M 0.53125 -0.921875 "/></g></g></g><g fill="#737373" fill-opacity="1"><g transform="translate(16.41367, 24.818001)"><g><path d="M 0.203125 1.046875 C 0.179688 1.046875 0.144531 1.035156 0.09375 1.015625 C 0.0390625 0.992188 -0.00390625 0.96875 -0.046875 0.9375 C -0.0859375 0.90625 -0.109375 0.878906 -0.109375 0.859375 C -0.109375 0.796875 -0.0546875 0.707031 0.046875 0.59375 C 0.148438 0.488281 0.265625 0.382812 0.390625 0.28125 C 0.523438 0.1875 0.625 0.125 0.6875 0.09375 C 0.726562 0.0703125 0.753906 0.0625 0.765625 0.0625 C 0.773438 0.0625 0.78125 0.0664062 0.78125 0.078125 C 0.78125 0.078125 0.769531 0.0859375 0.75 0.109375 C 0.695312 0.140625 0.613281 0.203125 0.5 0.296875 C 0.382812 0.398438 0.28125 0.5 0.1875 0.59375 C 0.09375 0.695312 0.046875 0.773438 0.046875 0.828125 C 0.046875 0.867188 0.0703125 0.890625 0.125 0.890625 C 0.25 0.890625 0.453125 0.671875 0.734375 0.234375 C 0.796875 0.140625 0.859375 0.03125 0.921875 -0.09375 C 0.992188 -0.21875 1.054688 -0.347656 1.109375 -0.484375 C 1.128906 -0.523438 1.144531 -0.570312 1.15625 -0.625 C 1.132812 -0.601562 1.109375 -0.570312 1.078125 -0.53125 C 1.054688 -0.5 1.035156 -0.460938 1.015625 -0.421875 C 0.816406 -0.128906 0.664062 0.015625 0.5625 0.015625 C 0.539062 0.015625 0.507812 0.0078125 0.46875 0 C 0.4375 -0.0078125 0.40625 -0.03125 0.375 -0.0625 C 0.351562 -0.09375 0.34375 -0.128906 0.34375 -0.171875 C 0.34375 -0.222656 0.359375 -0.285156 0.390625 -0.359375 C 0.421875 -0.429688 0.472656 -0.546875 0.546875 -0.703125 C 0.597656 -0.804688 0.632812 -0.878906 0.65625 -0.921875 C 0.65625 -0.941406 0.65625 -0.957031 0.65625 -0.96875 C 0.65625 -0.976562 0.65625 -0.984375 0.65625 -0.984375 C 0.65625 -0.992188 0.648438 -1 0.640625 -1 C 0.609375 -1 0.5625 -0.96875 0.5 -0.90625 C 0.445312 -0.851562 0.394531 -0.785156 0.34375 -0.703125 L 0.171875 -0.4375 C 0.148438 -0.425781 0.132812 -0.410156 0.125 -0.390625 C 0.113281 -0.378906 0.101562 -0.375 0.09375 -0.375 C 0.0820312 -0.375 0.0703125 -0.375 0.0625 -0.375 C 0.0625 -0.382812 0.0625 -0.394531 0.0625 -0.40625 C 0.0625 -0.414062 0.0664062 -0.425781 0.078125 -0.4375 C 0.273438 -0.757812 0.414062 -0.984375 0.5 -1.109375 C 0.507812 -1.117188 0.523438 -1.125 0.546875 -1.125 C 0.566406 -1.132812 0.585938 -1.140625 0.609375 -1.140625 C 0.648438 -1.140625 0.6875 -1.128906 0.71875 -1.109375 C 0.757812 -1.097656 0.789062 -1.078125 0.8125 -1.046875 C 0.84375 -1.023438 0.859375 -1 0.859375 -0.96875 C 0.859375 -0.9375 0.847656 -0.898438 0.828125 -0.859375 C 0.816406 -0.828125 0.796875 -0.785156 0.765625 -0.734375 C 0.722656 -0.648438 0.675781 -0.5625 0.625 -0.46875 C 0.601562 -0.414062 0.578125 -0.351562 0.546875 -0.28125 C 0.515625 -0.207031 0.5 -0.148438 0.5 -0.109375 C 0.5 -0.0859375 0.507812 -0.078125 0.53125 -0.078125 C 0.570312 -0.078125 0.640625 -0.117188 0.734375 -0.203125 C 0.828125 -0.296875 0.90625 -0.390625 0.96875 -0.484375 C 1.039062 -0.578125 1.09375 -0.648438 1.125 -0.703125 C 1.15625 -0.753906 1.171875 -0.796875 1.171875 -0.828125 C 1.171875 -0.847656 1.171875 -0.863281 1.171875 -0.875 C 1.191406 -0.875 1.21875 -0.867188 1.25 -0.859375 C 1.28125 -0.847656 1.304688 -0.832031 1.328125 -0.8125 C 1.347656 -0.789062 1.359375 -0.765625 1.359375 -0.734375 C 1.359375 -0.628906 1.28125 -0.425781 1.125 -0.125 C 0.976562 0.164062 0.8125 0.429688 0.625 0.671875 C 0.445312 0.921875 0.304688 1.046875 0.203125 1.046875 Z M 0.203125 1.046875 "/></g></g></g><g fill="#737373" fill-opacity="1"><g transform="translate(17.78187, 24.818001)"><g/></g></g><g fill="#737373" fill-opacity="1"><g transform="translate(18.40237, 24.818001)"><g><path d="M 0.484375 -0.609375 C 0.472656 -0.609375 0.460938 -0.613281 0.453125 -0.625 C 0.453125 -0.632812 0.453125 -0.644531 0.453125 -0.65625 C 0.453125 -0.675781 0.453125 -0.691406 0.453125 -0.703125 C 0.460938 -0.722656 0.472656 -0.738281 0.484375 -0.75 C 0.535156 -0.75 0.59375 -0.753906 0.65625 -0.765625 C 0.71875 -0.773438 0.78125 -0.78125 0.84375 -0.78125 C 0.863281 -0.78125 0.898438 -0.773438 0.953125 -0.765625 C 1.003906 -0.765625 1.054688 -0.753906 1.109375 -0.734375 C 1.160156 -0.722656 1.1875 -0.707031 1.1875 -0.6875 C 1.1875 -0.6875 1.179688 -0.6875 1.171875 -0.6875 C 1.160156 -0.6875 1.148438 -0.6875 1.140625 -0.6875 C 1.128906 -0.6875 1.117188 -0.6875 1.109375 -0.6875 C 1.046875 -0.695312 0.960938 -0.691406 0.859375 -0.671875 C 0.765625 -0.660156 0.640625 -0.640625 0.484375 -0.609375 Z M 0.484375 -0.609375 "/></g></g></g><g fill="#737373" fill-opacity="1"><g transform="translate(19.630956, 24.818001)"><g/></g></g><g fill="#737373" fill-opacity="1"><g transform="translate(20.251456, 24.818001)"><g><path d="M 1.09375 0.296875 C 0.945312 0.296875 0.800781 0.269531 0.65625 0.21875 C 0.519531 0.175781 0.40625 0.101562 0.3125 0 C 0.226562 -0.09375 0.1875 -0.207031 0.1875 -0.34375 C 0.1875 -0.519531 0.242188 -0.695312 0.359375 -0.875 C 0.316406 -0.9375 0.28125 -1.003906 0.25 -1.078125 C 0.226562 -1.148438 0.21875 -1.21875 0.21875 -1.28125 C 0.21875 -1.457031 0.265625 -1.597656 0.359375 -1.703125 C 0.460938 -1.816406 0.585938 -1.898438 0.734375 -1.953125 C 0.890625 -2.003906 1.0625 -2.03125 1.25 -2.03125 C 1.457031 -2.03125 1.648438 -2 1.828125 -1.9375 C 1.941406 -1.976562 2.050781 -2.007812 2.15625 -2.03125 C 2.269531 -2.050781 2.367188 -2.0625 2.453125 -2.0625 C 2.523438 -2.0625 2.585938 -2.050781 2.640625 -2.03125 C 2.691406 -2.019531 2.726562 -1.992188 2.75 -1.953125 C 2.78125 -1.921875 2.796875 -1.882812 2.796875 -1.84375 C 2.796875 -1.789062 2.78125 -1.738281 2.75 -1.6875 C 2.75 -1.6875 2.742188 -1.679688 2.734375 -1.671875 C 2.734375 -1.671875 2.726562 -1.671875 2.71875 -1.671875 C 2.71875 -1.671875 2.710938 -1.671875 2.703125 -1.671875 C 2.703125 -1.679688 2.703125 -1.6875 2.703125 -1.6875 C 2.703125 -1.695312 2.703125 -1.710938 2.703125 -1.734375 C 2.710938 -1.765625 2.71875 -1.785156 2.71875 -1.796875 C 2.71875 -1.835938 2.691406 -1.867188 2.640625 -1.890625 C 2.597656 -1.910156 2.535156 -1.921875 2.453125 -1.921875 C 2.335938 -1.921875 2.195312 -1.894531 2.03125 -1.84375 C 2.21875 -1.75 2.363281 -1.625 2.46875 -1.46875 C 2.570312 -1.3125 2.625 -1.132812 2.625 -0.9375 C 2.625 -0.695312 2.546875 -0.484375 2.390625 -0.296875 C 2.242188 -0.109375 2.050781 0.0351562 1.8125 0.140625 C 1.570312 0.242188 1.332031 0.296875 1.09375 0.296875 Z M 0.46875 -1.03125 C 0.613281 -1.207031 0.796875 -1.367188 1.015625 -1.515625 C 1.234375 -1.671875 1.460938 -1.796875 1.703125 -1.890625 C 1.578125 -1.921875 1.4375 -1.9375 1.28125 -1.9375 C 1.03125 -1.9375 0.820312 -1.890625 0.65625 -1.796875 C 0.488281 -1.703125 0.40625 -1.550781 0.40625 -1.34375 C 0.40625 -1.238281 0.425781 -1.132812 0.46875 -1.03125 Z M 0.921875 0.15625 C 1.140625 0.15625 1.367188 0.101562 1.609375 0 C 1.847656 -0.113281 2.050781 -0.265625 2.21875 -0.453125 C 2.382812 -0.640625 2.46875 -0.835938 2.46875 -1.046875 C 2.46875 -1.222656 2.421875 -1.375 2.328125 -1.5 C 2.234375 -1.632812 2.097656 -1.738281 1.921875 -1.8125 C 1.753906 -1.75 1.585938 -1.664062 1.421875 -1.5625 C 1.253906 -1.46875 1.09375 -1.351562 0.9375 -1.21875 C 0.789062 -1.09375 0.664062 -0.960938 0.5625 -0.828125 C 0.625 -0.722656 0.695312 -0.628906 0.78125 -0.546875 C 0.875 -0.472656 0.972656 -0.414062 1.078125 -0.375 L 1.140625 -0.359375 C 1.148438 -0.359375 1.15625 -0.351562 1.15625 -0.34375 C 1.164062 -0.332031 1.171875 -0.320312 1.171875 -0.3125 C 1.171875 -0.289062 1.164062 -0.28125 1.15625 -0.28125 C 1.144531 -0.28125 1.128906 -0.285156 1.109375 -0.296875 C 0.992188 -0.328125 0.878906 -0.378906 0.765625 -0.453125 C 0.660156 -0.523438 0.566406 -0.609375 0.484375 -0.703125 C 0.378906 -0.535156 0.328125 -0.390625 0.328125 -0.265625 C 0.328125 -0.171875 0.351562 -0.09375 0.40625 -0.03125 C 0.46875 0.03125 0.539062 0.078125 0.625 0.109375 C 0.71875 0.140625 0.816406 0.15625 0.921875 0.15625 Z M 0.921875 0.15625 "/></g></g></g><g fill="#737373" fill-opacity="1"><g transform="translate(22.891676, 24.818001)"><g><path d="M 1.140625 0.03125 C 1.097656 0.03125 1.0625 0.0195312 1.03125 0 C 1.007812 -0.03125 1 -0.078125 1 -0.140625 C 1 -0.210938 1.015625 -0.289062 1.046875 -0.375 C 1.078125 -0.46875 1.113281 -0.550781 1.15625 -0.625 C 1.132812 -0.601562 1.109375 -0.566406 1.078125 -0.515625 C 1.046875 -0.472656 1.019531 -0.441406 1 -0.421875 C 0.8125 -0.128906 0.664062 0.015625 0.5625 0.015625 C 0.539062 0.015625 0.507812 0.0078125 0.46875 0 C 0.4375 -0.0078125 0.40625 -0.03125 0.375 -0.0625 C 0.351562 -0.09375 0.34375 -0.128906 0.34375 -0.171875 C 0.34375 -0.234375 0.359375 -0.304688 0.390625 -0.390625 C 0.429688 -0.472656 0.484375 -0.578125 0.546875 -0.703125 C 0.597656 -0.804688 0.632812 -0.878906 0.65625 -0.921875 C 0.65625 -0.941406 0.65625 -0.957031 0.65625 -0.96875 C 0.65625 -0.988281 0.644531 -1 0.625 -1 C 0.59375 -1 0.554688 -0.972656 0.515625 -0.921875 C 0.472656 -0.878906 0.414062 -0.804688 0.34375 -0.703125 L 0.125 -0.375 C 0.101562 -0.351562 0.09375 -0.34375 0.09375 -0.34375 C 0.0820312 -0.34375 0.0703125 -0.347656 0.0625 -0.359375 C 0.0625 -0.367188 0.0625 -0.378906 0.0625 -0.390625 C 0.0625 -0.410156 0.0664062 -0.425781 0.078125 -0.4375 C 0.171875 -0.570312 0.234375 -0.671875 0.265625 -0.734375 L 0.5 -1.109375 C 0.507812 -1.117188 0.523438 -1.125 0.546875 -1.125 C 0.566406 -1.132812 0.585938 -1.140625 0.609375 -1.140625 C 0.648438 -1.140625 0.6875 -1.128906 0.71875 -1.109375 C 0.757812 -1.097656 0.789062 -1.078125 0.8125 -1.046875 C 0.84375 -1.023438 0.859375 -1 0.859375 -0.96875 C 0.859375 -0.9375 0.847656 -0.898438 0.828125 -0.859375 C 0.816406 -0.828125 0.796875 -0.785156 0.765625 -0.734375 C 0.722656 -0.648438 0.675781 -0.5625 0.625 -0.46875 C 0.601562 -0.414062 0.578125 -0.351562 0.546875 -0.28125 C 0.515625 -0.207031 0.5 -0.148438 0.5 -0.109375 C 0.5 -0.0859375 0.507812 -0.078125 0.53125 -0.078125 C 0.550781 -0.078125 0.59375 -0.101562 0.65625 -0.15625 C 0.820312 -0.28125 1.003906 -0.5 1.203125 -0.8125 C 1.234375 -0.863281 1.25 -0.890625 1.25 -0.890625 C 1.257812 -0.890625 1.273438 -0.878906 1.296875 -0.859375 C 1.316406 -0.847656 1.332031 -0.828125 1.34375 -0.796875 C 1.363281 -0.773438 1.375 -0.753906 1.375 -0.734375 C 1.375 -0.710938 1.375 -0.695312 1.375 -0.6875 C 1.25 -0.507812 1.1875 -0.351562 1.1875 -0.21875 C 1.1875 -0.164062 1.207031 -0.140625 1.25 -0.140625 C 1.289062 -0.140625 1.335938 -0.164062 1.390625 -0.21875 C 1.441406 -0.269531 1.5 -0.335938 1.5625 -0.421875 C 1.582031 -0.441406 1.617188 -0.484375 1.671875 -0.546875 C 1.679688 -0.566406 1.691406 -0.578125 1.703125 -0.578125 C 1.710938 -0.578125 1.71875 -0.570312 1.71875 -0.5625 C 1.726562 -0.5625 1.734375 -0.554688 1.734375 -0.546875 C 1.734375 -0.535156 1.722656 -0.515625 1.703125 -0.484375 C 1.691406 -0.460938 1.664062 -0.421875 1.625 -0.359375 C 1.582031 -0.296875 1.546875 -0.253906 1.515625 -0.234375 C 1.347656 -0.0546875 1.222656 0.03125 1.140625 0.03125 Z M 1.140625 0.03125 "/></g></g></g><g fill="#737373" fill-opacity="1"><g transform="translate(24.402589, 24.818001)"><g><path d="M 0.546875 0.046875 C 0.441406 0.046875 0.390625 -0.015625 0.390625 -0.140625 C 0.390625 -0.191406 0.394531 -0.242188 0.40625 -0.296875 C 0.425781 -0.359375 0.445312 -0.410156 0.46875 -0.453125 C 0.519531 -0.578125 0.59375 -0.71875 0.6875 -0.875 C 0.664062 -0.875 0.644531 -0.875 0.625 -0.875 C 0.59375 -0.875 0.5625 -0.875 0.53125 -0.875 C 0.507812 -0.882812 0.492188 -0.894531 0.484375 -0.90625 C 0.453125 -0.875 0.40625 -0.804688 0.34375 -0.703125 C 0.257812 -0.578125 0.195312 -0.488281 0.15625 -0.4375 C 0.125 -0.394531 0.101562 -0.375 0.09375 -0.375 C 0.0820312 -0.375 0.0703125 -0.375 0.0625 -0.375 C 0.0625 -0.382812 0.0625 -0.394531 0.0625 -0.40625 C 0.0625 -0.414062 0.0664062 -0.425781 0.078125 -0.4375 C 0.191406 -0.601562 0.296875 -0.773438 0.390625 -0.953125 C 0.359375 -0.972656 0.34375 -1.003906 0.34375 -1.046875 C 0.34375 -1.078125 0.351562 -1.113281 0.375 -1.15625 C 0.394531 -1.195312 0.421875 -1.226562 0.453125 -1.25 C 0.492188 -1.28125 0.546875 -1.296875 0.609375 -1.296875 C 0.628906 -1.296875 0.644531 -1.289062 0.65625 -1.28125 C 0.664062 -1.28125 0.671875 -1.269531 0.671875 -1.25 C 0.671875 -1.21875 0.640625 -1.15625 0.578125 -1.0625 C 0.566406 -1.050781 0.554688 -1.035156 0.546875 -1.015625 C 0.535156 -1.003906 0.53125 -0.992188 0.53125 -0.984375 C 0.53125 -0.972656 0.546875 -0.960938 0.578125 -0.953125 C 0.609375 -0.941406 0.644531 -0.9375 0.6875 -0.9375 C 0.695312 -0.9375 0.710938 -0.941406 0.734375 -0.953125 C 0.765625 -0.960938 0.796875 -0.96875 0.828125 -0.96875 C 0.859375 -0.96875 0.882812 -0.957031 0.90625 -0.9375 C 0.925781 -0.925781 0.9375 -0.914062 0.9375 -0.90625 C 0.9375 -0.875 0.921875 -0.835938 0.890625 -0.796875 C 0.835938 -0.742188 0.785156 -0.679688 0.734375 -0.609375 C 0.691406 -0.535156 0.65625 -0.457031 0.625 -0.375 C 0.59375 -0.300781 0.578125 -0.234375 0.578125 -0.171875 C 0.578125 -0.128906 0.59375 -0.109375 0.625 -0.109375 C 0.65625 -0.109375 0.6875 -0.113281 0.71875 -0.125 C 0.757812 -0.144531 0.804688 -0.1875 0.859375 -0.25 C 0.921875 -0.320312 1 -0.425781 1.09375 -0.5625 C 1.101562 -0.570312 1.109375 -0.578125 1.109375 -0.578125 C 1.117188 -0.585938 1.125 -0.59375 1.125 -0.59375 C 1.132812 -0.59375 1.140625 -0.585938 1.140625 -0.578125 C 1.148438 -0.566406 1.15625 -0.554688 1.15625 -0.546875 C 1.15625 -0.546875 1.148438 -0.535156 1.140625 -0.515625 C 1.035156 -0.359375 0.929688 -0.222656 0.828125 -0.109375 C 0.734375 -0.00390625 0.640625 0.046875 0.546875 0.046875 Z M 0.546875 0.046875 "/></g></g></g><g fill="#737373" fill-opacity="1"><g transform="translate(25.330235, 24.818001)"><g/></g></g><g fill="#737373" fill-opacity="1"><g transform="translate(25.950736, 24.818001)"><g><path d="M 1.3125 -0.59375 C 1.269531 -0.59375 1.238281 -0.597656 1.21875 -0.609375 C 1.195312 -0.617188 1.1875 -0.632812 1.1875 -0.65625 C 1.1875 -0.664062 1.195312 -0.679688 1.21875 -0.703125 C 1.25 -0.722656 1.289062 -0.738281 1.34375 -0.75 C 1.394531 -0.769531 1.457031 -0.78125 1.53125 -0.78125 C 1.601562 -0.78125 1.671875 -0.765625 1.734375 -0.734375 C 1.890625 -0.785156 2.019531 -0.847656 2.125 -0.921875 C 2.238281 -0.992188 2.320312 -1.066406 2.375 -1.140625 C 2.4375 -1.222656 2.46875 -1.304688 2.46875 -1.390625 C 2.46875 -1.535156 2.410156 -1.648438 2.296875 -1.734375 C 2.179688 -1.816406 2.046875 -1.875 1.890625 -1.90625 C 1.734375 -1.9375 1.59375 -1.953125 1.46875 -1.953125 C 1.195312 -1.953125 0.953125 -1.921875 0.734375 -1.859375 C 0.515625 -1.796875 0.34375 -1.703125 0.21875 -1.578125 C 0.09375 -1.453125 0.03125 -1.304688 0.03125 -1.140625 C 0.03125 -1.078125 0.0390625 -1.019531 0.0625 -0.96875 C 0.09375 -0.914062 0.125 -0.867188 0.15625 -0.828125 C 0.195312 -0.796875 0.238281 -0.773438 0.28125 -0.765625 C 0.300781 -0.765625 0.316406 -0.765625 0.328125 -0.765625 C 0.335938 -0.765625 0.34375 -0.757812 0.34375 -0.75 C 0.34375 -0.738281 0.335938 -0.726562 0.328125 -0.71875 C 0.316406 -0.71875 0.296875 -0.71875 0.265625 -0.71875 C 0.203125 -0.71875 0.132812 -0.734375 0.0625 -0.765625 C 0 -0.804688 -0.0507812 -0.859375 -0.09375 -0.921875 C -0.132812 -0.984375 -0.15625 -1.050781 -0.15625 -1.125 C -0.15625 -1.300781 -0.078125 -1.460938 0.078125 -1.609375 C 0.234375 -1.753906 0.445312 -1.863281 0.71875 -1.9375 C 0.988281 -2.019531 1.285156 -2.0625 1.609375 -2.0625 C 1.785156 -2.0625 1.957031 -2.035156 2.125 -1.984375 C 2.289062 -1.941406 2.425781 -1.875 2.53125 -1.78125 C 2.632812 -1.6875 2.6875 -1.566406 2.6875 -1.421875 C 2.6875 -1.148438 2.492188 -0.941406 2.109375 -0.796875 L 1.765625 -0.6875 L 1.765625 -0.671875 C 1.785156 -0.660156 1.796875 -0.648438 1.796875 -0.640625 C 1.804688 -0.628906 1.8125 -0.617188 1.8125 -0.609375 C 1.8125 -0.597656 1.804688 -0.59375 1.796875 -0.59375 C 1.785156 -0.601562 1.769531 -0.613281 1.75 -0.625 C 1.726562 -0.644531 1.710938 -0.65625 1.703125 -0.65625 C 1.554688 -0.613281 1.425781 -0.59375 1.3125 -0.59375 Z M 0.53125 0.28125 C 0.445312 0.28125 0.40625 0.242188 0.40625 0.171875 C 0.40625 0.128906 0.414062 0.0820312 0.4375 0.03125 C 0.5 -0.125 0.585938 -0.300781 0.703125 -0.5 C 0.828125 -0.707031 0.953125 -0.898438 1.078125 -1.078125 C 1.210938 -1.265625 1.328125 -1.421875 1.421875 -1.546875 C 1.421875 -1.546875 1.421875 -1.550781 1.421875 -1.5625 C 1.421875 -1.59375 1.425781 -1.613281 1.4375 -1.625 C 1.445312 -1.632812 1.457031 -1.640625 1.46875 -1.640625 C 1.5 -1.640625 1.53125 -1.632812 1.5625 -1.625 C 1.59375 -1.613281 1.617188 -1.597656 1.640625 -1.578125 C 1.671875 -1.566406 1.6875 -1.554688 1.6875 -1.546875 C 1.6875 -1.546875 1.6875 -1.539062 1.6875 -1.53125 C 1.675781 -1.53125 1.664062 -1.523438 1.65625 -1.515625 C 1.644531 -1.503906 1.640625 -1.492188 1.640625 -1.484375 C 1.628906 -1.472656 1.597656 -1.441406 1.546875 -1.390625 C 1.492188 -1.335938 1.441406 -1.273438 1.390625 -1.203125 C 1.304688 -1.097656 1.203125 -0.953125 1.078125 -0.765625 C 0.960938 -0.585938 0.859375 -0.414062 0.765625 -0.25 C 0.671875 -0.0820312 0.625 0.0351562 0.625 0.109375 C 0.625 0.148438 0.644531 0.171875 0.6875 0.171875 C 0.695312 0.171875 0.71875 0.160156 0.75 0.140625 C 0.78125 0.128906 0.8125 0.113281 0.84375 0.09375 C 0.851562 0.0820312 0.859375 0.078125 0.859375 0.078125 C 0.867188 0.078125 0.875 0.0820312 0.875 0.09375 C 0.875 0.101562 0.867188 0.113281 0.859375 0.125 C 0.847656 0.144531 0.820312 0.164062 0.78125 0.1875 C 0.738281 0.21875 0.691406 0.238281 0.640625 0.25 C 0.597656 0.269531 0.5625 0.28125 0.53125 0.28125 Z M 0.53125 0.28125 "/></g></g></g><g fill="#737373" fill-opacity="1"><g transform="translate(28.317938, 24.818001)"><g><path d="M 0.546875 0.046875 C 0.441406 0.046875 0.390625 -0.015625 0.390625 -0.140625 C 0.390625 -0.191406 0.394531 -0.242188 0.40625 -0.296875 C 0.425781 -0.359375 0.445312 -0.410156 0.46875 -0.453125 C 0.519531 -0.578125 0.59375 -0.71875 0.6875 -0.875 C 0.664062 -0.875 0.644531 -0.875 0.625 -0.875 C 0.59375 -0.875 0.5625 -0.875 0.53125 -0.875 C 0.507812 -0.882812 0.492188 -0.894531 0.484375 -0.90625 C 0.453125 -0.875 0.40625 -0.804688 0.34375 -0.703125 C 0.257812 -0.578125 0.195312 -0.488281 0.15625 -0.4375 C 0.125 -0.394531 0.101562 -0.375 0.09375 -0.375 C 0.0820312 -0.375 0.0703125 -0.375 0.0625 -0.375 C 0.0625 -0.382812 0.0625 -0.394531 0.0625 -0.40625 C 0.0625 -0.414062 0.0664062 -0.425781 0.078125 -0.4375 C 0.191406 -0.601562 0.296875 -0.773438 0.390625 -0.953125 C 0.359375 -0.972656 0.34375 -1.003906 0.34375 -1.046875 C 0.34375 -1.078125 0.351562 -1.113281 0.375 -1.15625 C 0.394531 -1.195312 0.421875 -1.226562 0.453125 -1.25 C 0.492188 -1.28125 0.546875 -1.296875 0.609375 -1.296875 C 0.628906 -1.296875 0.644531 -1.289062 0.65625 -1.28125 C 0.664062 -1.28125 0.671875 -1.269531 0.671875 -1.25 C 0.671875 -1.21875 0.640625 -1.15625 0.578125 -1.0625 C 0.566406 -1.050781 0.554688 -1.035156 0.546875 -1.015625 C 0.535156 -1.003906 0.53125 -0.992188 0.53125 -0.984375 C 0.53125 -0.972656 0.546875 -0.960938 0.578125 -0.953125 C 0.609375 -0.941406 0.644531 -0.9375 0.6875 -0.9375 C 0.695312 -0.9375 0.710938 -0.941406 0.734375 -0.953125 C 0.765625 -0.960938 0.796875 -0.96875 0.828125 -0.96875 C 0.859375 -0.96875 0.882812 -0.957031 0.90625 -0.9375 C 0.925781 -0.925781 0.9375 -0.914062 0.9375 -0.90625 C 0.9375 -0.875 0.921875 -0.835938 0.890625 -0.796875 C 0.835938 -0.742188 0.785156 -0.679688 0.734375 -0.609375 C 0.691406 -0.535156 0.65625 -0.457031 0.625 -0.375 C 0.59375 -0.300781 0.578125 -0.234375 0.578125 -0.171875 C 0.578125 -0.128906 0.59375 -0.109375 0.625 -0.109375 C 0.65625 -0.109375 0.6875 -0.113281 0.71875 -0.125 C 0.757812 -0.144531 0.804688 -0.1875 0.859375 -0.25 C 0.921875 -0.320312 1 -0.425781 1.09375 -0.5625 C 1.101562 -0.570312 1.109375 -0.578125 1.109375 -0.578125 C 1.117188 -0.585938 1.125 -0.59375 1.125 -0.59375 C 1.132812 -0.59375 1.140625 -0.585938 1.140625 -0.578125 C 1.148438 -0.566406 1.15625 -0.554688 1.15625 -0.546875 C 1.15625 -0.546875 1.148438 -0.535156 1.140625 -0.515625 C 1.035156 -0.359375 0.929688 -0.222656 0.828125 -0.109375 C 0.734375 -0.00390625 0.640625 0.046875 0.546875 0.046875 Z M 0.546875 0.046875 "/></g></g></g><g fill="#737373" fill-opacity="1"><g transform="translate(29.245584, 24.818001)"><g><path d="M 0.546875 -1.1875 C 0.523438 -1.1875 0.503906 -1.203125 0.484375 -1.234375 C 0.472656 -1.265625 0.46875 -1.289062 0.46875 -1.3125 C 0.46875 -1.332031 0.472656 -1.347656 0.484375 -1.359375 L 0.515625 -1.359375 C 0.554688 -1.359375 0.601562 -1.359375 0.65625 -1.359375 C 0.707031 -1.367188 0.742188 -1.382812 0.765625 -1.40625 C 0.773438 -1.40625 0.785156 -1.40625 0.796875 -1.40625 C 0.796875 -1.40625 0.796875 -1.398438 0.796875 -1.390625 C 0.796875 -1.390625 0.796875 -1.382812 0.796875 -1.375 C 0.796875 -1.363281 0.789062 -1.359375 0.78125 -1.359375 C 0.757812 -1.347656 0.738281 -1.332031 0.71875 -1.3125 C 0.6875 -1.269531 0.65625 -1.238281 0.625 -1.21875 C 0.59375 -1.195312 0.566406 -1.1875 0.546875 -1.1875 Z M 0.171875 0.046875 C 0.128906 0.046875 0.09375 0.03125 0.0625 0 C 0.0390625 -0.03125 0.03125 -0.078125 0.03125 -0.140625 C 0.03125 -0.179688 0.0351562 -0.222656 0.046875 -0.265625 C 0.0664062 -0.316406 0.0859375 -0.367188 0.109375 -0.421875 C 0.148438 -0.523438 0.203125 -0.640625 0.265625 -0.765625 C 0.328125 -0.898438 0.363281 -0.972656 0.375 -0.984375 C 0.382812 -0.992188 0.398438 -1 0.421875 -1 C 0.441406 -1 0.460938 -0.988281 0.484375 -0.96875 C 0.503906 -0.945312 0.515625 -0.921875 0.515625 -0.890625 C 0.515625 -0.859375 0.507812 -0.832031 0.5 -0.8125 C 0.476562 -0.789062 0.445312 -0.742188 0.40625 -0.671875 C 0.363281 -0.609375 0.320312 -0.535156 0.28125 -0.453125 C 0.25 -0.378906 0.226562 -0.316406 0.21875 -0.265625 C 0.21875 -0.253906 0.21875 -0.234375 0.21875 -0.203125 C 0.21875 -0.160156 0.234375 -0.140625 0.265625 -0.140625 C 0.296875 -0.140625 0.328125 -0.148438 0.359375 -0.171875 C 0.398438 -0.203125 0.445312 -0.242188 0.5 -0.296875 C 0.539062 -0.335938 0.613281 -0.4375 0.71875 -0.59375 C 0.726562 -0.601562 0.738281 -0.609375 0.75 -0.609375 C 0.757812 -0.609375 0.765625 -0.601562 0.765625 -0.59375 C 0.773438 -0.59375 0.78125 -0.585938 0.78125 -0.578125 C 0.78125 -0.566406 0.773438 -0.550781 0.765625 -0.53125 C 0.722656 -0.457031 0.648438 -0.351562 0.546875 -0.21875 C 0.484375 -0.144531 0.414062 -0.0820312 0.34375 -0.03125 C 0.28125 0.0195312 0.222656 0.046875 0.171875 0.046875 Z M 0.171875 0.046875 "/></g></g></g><g fill="#737373" fill-opacity="1"><g transform="translate(29.785417, 24.818001)"><g><path d="M 0.265625 0.078125 C 0.203125 0.078125 0.148438 0.0546875 0.109375 0.015625 C 0.0664062 -0.015625 0.046875 -0.0664062 0.046875 -0.140625 C 0.046875 -0.234375 0.0703125 -0.335938 0.125 -0.453125 C 0.175781 -0.578125 0.238281 -0.691406 0.3125 -0.796875 C 0.394531 -0.910156 0.472656 -0.992188 0.546875 -1.046875 C 0.554688 -1.054688 0.566406 -1.0625 0.578125 -1.0625 C 0.585938 -1.070312 0.59375 -1.078125 0.59375 -1.078125 C 0.613281 -1.078125 0.628906 -1.070312 0.640625 -1.0625 C 0.660156 -1.050781 0.679688 -1.039062 0.703125 -1.03125 C 0.742188 -1.082031 0.785156 -1.109375 0.828125 -1.109375 C 0.898438 -1.109375 0.945312 -1.078125 0.96875 -1.015625 C 0.988281 -0.960938 1 -0.898438 1 -0.828125 C 1 -0.742188 0.976562 -0.644531 0.9375 -0.53125 C 0.894531 -0.425781 0.835938 -0.328125 0.765625 -0.234375 C 0.785156 -0.222656 0.804688 -0.21875 0.828125 -0.21875 C 0.890625 -0.21875 0.945312 -0.242188 1 -0.296875 C 1.0625 -0.347656 1.125 -0.414062 1.1875 -0.5 L 1.234375 -0.59375 C 1.242188 -0.59375 1.25 -0.59375 1.25 -0.59375 C 1.257812 -0.59375 1.269531 -0.585938 1.28125 -0.578125 C 1.289062 -0.566406 1.296875 -0.554688 1.296875 -0.546875 C 1.296875 -0.535156 1.289062 -0.53125 1.28125 -0.53125 L 1.21875 -0.421875 C 1.144531 -0.328125 1.078125 -0.253906 1.015625 -0.203125 C 0.953125 -0.160156 0.890625 -0.140625 0.828125 -0.140625 C 0.785156 -0.140625 0.742188 -0.148438 0.703125 -0.171875 C 0.640625 -0.0976562 0.566406 -0.0390625 0.484375 0 C 0.410156 0.0507812 0.335938 0.078125 0.265625 0.078125 Z M 0.703125 -0.328125 C 0.734375 -0.378906 0.765625 -0.441406 0.796875 -0.515625 C 0.828125 -0.597656 0.851562 -0.675781 0.875 -0.75 C 0.894531 -0.820312 0.90625 -0.882812 0.90625 -0.9375 C 0.90625 -0.957031 0.898438 -0.972656 0.890625 -0.984375 C 0.878906 -1.003906 0.867188 -1.015625 0.859375 -1.015625 C 0.835938 -1.015625 0.816406 -1.003906 0.796875 -0.984375 C 0.773438 -0.960938 0.753906 -0.929688 0.734375 -0.890625 C 0.710938 -0.835938 0.695312 -0.78125 0.6875 -0.71875 C 0.675781 -0.65625 0.671875 -0.59375 0.671875 -0.53125 C 0.671875 -0.457031 0.679688 -0.390625 0.703125 -0.328125 Z M 0.296875 0 C 0.390625 0 0.503906 -0.0820312 0.640625 -0.25 C 0.617188 -0.289062 0.597656 -0.335938 0.578125 -0.390625 C 0.566406 -0.441406 0.5625 -0.503906 0.5625 -0.578125 C 0.5625 -0.679688 0.578125 -0.78125 0.609375 -0.875 C 0.554688 -0.820312 0.5 -0.75 0.4375 -0.65625 C 0.382812 -0.570312 0.335938 -0.476562 0.296875 -0.375 C 0.253906 -0.28125 0.234375 -0.1875 0.234375 -0.09375 C 0.234375 -0.0625 0.238281 -0.0351562 0.25 -0.015625 C 0.257812 -0.00390625 0.273438 0 0.296875 0 Z M 0.296875 0 "/></g></g></g><g fill="#737373" fill-opacity="1"><g transform="translate(30.837161, 24.818001)"><g><path d="M 0.546875 0.046875 C 0.441406 0.046875 0.390625 -0.015625 0.390625 -0.140625 C 0.390625 -0.191406 0.394531 -0.242188 0.40625 -0.296875 C 0.425781 -0.359375 0.445312 -0.410156 0.46875 -0.453125 C 0.519531 -0.578125 0.59375 -0.71875 0.6875 -0.875 C 0.664062 -0.875 0.644531 -0.875 0.625 -0.875 C 0.59375 -0.875 0.5625 -0.875 0.53125 -0.875 C 0.507812 -0.882812 0.492188 -0.894531 0.484375 -0.90625 C 0.453125 -0.875 0.40625 -0.804688 0.34375 -0.703125 C 0.257812 -0.578125 0.195312 -0.488281 0.15625 -0.4375 C 0.125 -0.394531 0.101562 -0.375 0.09375 -0.375 C 0.0820312 -0.375 0.0703125 -0.375 0.0625 -0.375 C 0.0625 -0.382812 0.0625 -0.394531 0.0625 -0.40625 C 0.0625 -0.414062 0.0664062 -0.425781 0.078125 -0.4375 C 0.191406 -0.601562 0.296875 -0.773438 0.390625 -0.953125 C 0.359375 -0.972656 0.34375 -1.003906 0.34375 -1.046875 C 0.34375 -1.078125 0.351562 -1.113281 0.375 -1.15625 C 0.394531 -1.195312 0.421875 -1.226562 0.453125 -1.25 C 0.492188 -1.28125 0.546875 -1.296875 0.609375 -1.296875 C 0.628906 -1.296875 0.644531 -1.289062 0.65625 -1.28125 C 0.664062 -1.28125 0.671875 -1.269531 0.671875 -1.25 C 0.671875 -1.21875 0.640625 -1.15625 0.578125 -1.0625 C 0.566406 -1.050781 0.554688 -1.035156 0.546875 -1.015625 C 0.535156 -1.003906 0.53125 -0.992188 0.53125 -0.984375 C 0.53125 -0.972656 0.546875 -0.960938 0.578125 -0.953125 C 0.609375 -0.941406 0.644531 -0.9375 0.6875 -0.9375 C 0.695312 -0.9375 0.710938 -0.941406 0.734375 -0.953125 C 0.765625 -0.960938 0.796875 -0.96875 0.828125 -0.96875 C 0.859375 -0.96875 0.882812 -0.957031 0.90625 -0.9375 C 0.925781 -0.925781 0.9375 -0.914062 0.9375 -0.90625 C 0.9375 -0.875 0.921875 -0.835938 0.890625 -0.796875 C 0.835938 -0.742188 0.785156 -0.679688 0.734375 -0.609375 C 0.691406 -0.535156 0.65625 -0.457031 0.625 -0.375 C 0.59375 -0.300781 0.578125 -0.234375 0.578125 -0.171875 C 0.578125 -0.128906 0.59375 -0.109375 0.625 -0.109375 C 0.65625 -0.109375 0.6875 -0.113281 0.71875 -0.125 C 0.757812 -0.144531 0.804688 -0.1875 0.859375 -0.25 C 0.921875 -0.320312 1 -0.425781 1.09375 -0.5625 C 1.101562 -0.570312 1.109375 -0.578125 1.109375 -0.578125 C 1.117188 -0.585938 1.125 -0.59375 1.125 -0.59375 C 1.132812 -0.59375 1.140625 -0.585938 1.140625 -0.578125 C 1.148438 -0.566406 1.15625 -0.554688 1.15625 -0.546875 C 1.15625 -0.546875 1.148438 -0.535156 1.140625 -0.515625 C 1.035156 -0.359375 0.929688 -0.222656 0.828125 -0.109375 C 0.734375 -0.00390625 0.640625 0.046875 0.546875 0.046875 Z M 0.546875 0.046875 "/></g></g></g><g fill="#737373" fill-opacity="1"><g transform="translate(31.764806, 24.818001)"><g><path d="M 0.546875 -1.1875 C 0.523438 -1.1875 0.503906 -1.203125 0.484375 -1.234375 C 0.472656 -1.265625 0.46875 -1.289062 0.46875 -1.3125 C 0.46875 -1.332031 0.472656 -1.347656 0.484375 -1.359375 L 0.515625 -1.359375 C 0.554688 -1.359375 0.601562 -1.359375 0.65625 -1.359375 C 0.707031 -1.367188 0.742188 -1.382812 0.765625 -1.40625 C 0.773438 -1.40625 0.785156 -1.40625 0.796875 -1.40625 C 0.796875 -1.40625 0.796875 -1.398438 0.796875 -1.390625 C 0.796875 -1.390625 0.796875 -1.382812 0.796875 -1.375 C 0.796875 -1.363281 0.789062 -1.359375 0.78125 -1.359375 C 0.757812 -1.347656 0.738281 -1.332031 0.71875 -1.3125 C 0.6875 -1.269531 0.65625 -1.238281 0.625 -1.21875 C 0.59375 -1.195312 0.566406 -1.1875 0.546875 -1.1875 Z M 0.171875 0.046875 C 0.128906 0.046875 0.09375 0.03125 0.0625 0 C 0.0390625 -0.03125 0.03125 -0.078125 0.03125 -0.140625 C 0.03125 -0.179688 0.0351562 -0.222656 0.046875 -0.265625 C 0.0664062 -0.316406 0.0859375 -0.367188 0.109375 -0.421875 C 0.148438 -0.523438 0.203125 -0.640625 0.265625 -0.765625 C 0.328125 -0.898438 0.363281 -0.972656 0.375 -0.984375 C 0.382812 -0.992188 0.398438 -1 0.421875 -1 C 0.441406 -1 0.460938 -0.988281 0.484375 -0.96875 C 0.503906 -0.945312 0.515625 -0.921875 0.515625 -0.890625 C 0.515625 -0.859375 0.507812 -0.832031 0.5 -0.8125 C 0.476562 -0.789062 0.445312 -0.742188 0.40625 -0.671875 C 0.363281 -0.609375 0.320312 -0.535156 0.28125 -0.453125 C 0.25 -0.378906 0.226562 -0.316406 0.21875 -0.265625 C 0.21875 -0.253906 0.21875 -0.234375 0.21875 -0.203125 C 0.21875 -0.160156 0.234375 -0.140625 0.265625 -0.140625 C 0.296875 -0.140625 0.328125 -0.148438 0.359375 -0.171875 C 0.398438 -0.203125 0.445312 -0.242188 0.5 -0.296875 C 0.539062 -0.335938 0.613281 -0.4375 0.71875 -0.59375 C 0.726562 -0.601562 0.738281 -0.609375 0.75 -0.609375 C 0.757812 -0.609375 0.765625 -0.601562 0.765625 -0.59375 C 0.773438 -0.59375 0.78125 -0.585938 0.78125 -0.578125 C 0.78125 -0.566406 0.773438 -0.550781 0.765625 -0.53125 C 0.722656 -0.457031 0.648438 -0.351562 0.546875 -0.21875 C 0.484375 -0.144531 0.414062 -0.0820312 0.34375 -0.03125 C 0.28125 0.0195312 0.222656 0.046875 0.171875 0.046875 Z M 0.171875 0.046875 "/></g></g></g><g fill="#737373" fill-opacity="1"><g transform="translate(32.30464, 24.818001)"><g><path d="M 0.234375 0.078125 C 0.179688 0.078125 0.140625 0.0546875 0.109375 0.015625 C 0.078125 -0.015625 0.0625 -0.0664062 0.0625 -0.140625 C 0.0625 -0.234375 0.0820312 -0.332031 0.125 -0.4375 C 0.164062 -0.539062 0.234375 -0.675781 0.328125 -0.84375 L 0.40625 -0.984375 C 0.382812 -0.972656 0.359375 -0.960938 0.328125 -0.953125 C 0.296875 -0.941406 0.265625 -0.929688 0.234375 -0.921875 C 0.203125 -0.910156 0.1875 -0.90625 0.1875 -0.90625 C 0.164062 -0.90625 0.15625 -0.914062 0.15625 -0.9375 C 0.15625 -0.957031 0.160156 -0.984375 0.171875 -1.015625 C 0.179688 -1.046875 0.195312 -1.0625 0.21875 -1.0625 C 0.257812 -1.0625 0.296875 -1.0625 0.328125 -1.0625 C 0.367188 -1.070312 0.414062 -1.082031 0.46875 -1.09375 C 0.539062 -1.21875 0.601562 -1.316406 0.65625 -1.390625 C 0.695312 -1.460938 0.734375 -1.507812 0.765625 -1.53125 C 0.796875 -1.5625 0.820312 -1.578125 0.84375 -1.578125 C 0.863281 -1.578125 0.882812 -1.570312 0.90625 -1.5625 C 0.9375 -1.550781 0.957031 -1.535156 0.96875 -1.515625 C 0.988281 -1.503906 1 -1.492188 1 -1.484375 C 1 -1.484375 0.988281 -1.476562 0.96875 -1.46875 C 0.9375 -1.4375 0.894531 -1.390625 0.84375 -1.328125 C 0.800781 -1.273438 0.742188 -1.195312 0.671875 -1.09375 C 0.722656 -1.101562 0.816406 -1.109375 0.953125 -1.109375 C 0.960938 -1.109375 0.96875 -1.101562 0.96875 -1.09375 C 0.976562 -1.09375 0.984375 -1.085938 0.984375 -1.078125 C 0.984375 -1.066406 0.960938 -1.054688 0.921875 -1.046875 C 0.890625 -1.035156 0.84375 -1.023438 0.78125 -1.015625 C 0.738281 -1.003906 0.695312 -0.992188 0.65625 -0.984375 C 0.613281 -0.972656 0.585938 -0.960938 0.578125 -0.953125 C 0.472656 -0.796875 0.390625 -0.644531 0.328125 -0.5 C 0.265625 -0.363281 0.234375 -0.242188 0.234375 -0.140625 C 0.234375 -0.109375 0.238281 -0.0820312 0.25 -0.0625 C 0.257812 -0.0507812 0.273438 -0.046875 0.296875 -0.046875 C 0.335938 -0.046875 0.394531 -0.0703125 0.46875 -0.125 C 0.550781 -0.175781 0.613281 -0.226562 0.65625 -0.28125 C 0.6875 -0.3125 0.722656 -0.351562 0.765625 -0.40625 C 0.816406 -0.46875 0.851562 -0.515625 0.875 -0.546875 C 0.90625 -0.578125 0.925781 -0.59375 0.9375 -0.59375 C 0.9375 -0.59375 0.9375 -0.585938 0.9375 -0.578125 C 0.945312 -0.578125 0.953125 -0.570312 0.953125 -0.5625 C 0.953125 -0.5625 0.953125 -0.554688 0.953125 -0.546875 C 0.929688 -0.503906 0.894531 -0.453125 0.84375 -0.390625 C 0.800781 -0.335938 0.757812 -0.285156 0.71875 -0.234375 C 0.644531 -0.140625 0.566406 -0.0625 0.484375 0 C 0.398438 0.0507812 0.316406 0.078125 0.234375 0.078125 Z M 0.234375 0.078125 "/></g></g></g><g fill="#737373" fill-opacity="1"><g transform="translate(33.018214, 24.818001)"><g><path d="M 0.203125 1.046875 C 0.179688 1.046875 0.144531 1.035156 0.09375 1.015625 C 0.0390625 0.992188 -0.00390625 0.96875 -0.046875 0.9375 C -0.0859375 0.90625 -0.109375 0.878906 -0.109375 0.859375 C -0.109375 0.796875 -0.0546875 0.707031 0.046875 0.59375 C 0.148438 0.488281 0.265625 0.382812 0.390625 0.28125 C 0.523438 0.1875 0.625 0.125 0.6875 0.09375 C 0.726562 0.0703125 0.753906 0.0625 0.765625 0.0625 C 0.773438 0.0625 0.78125 0.0664062 0.78125 0.078125 C 0.78125 0.078125 0.769531 0.0859375 0.75 0.109375 C 0.695312 0.140625 0.613281 0.203125 0.5 0.296875 C 0.382812 0.398438 0.28125 0.5 0.1875 0.59375 C 0.09375 0.695312 0.046875 0.773438 0.046875 0.828125 C 0.046875 0.867188 0.0703125 0.890625 0.125 0.890625 C 0.25 0.890625 0.453125 0.671875 0.734375 0.234375 C 0.796875 0.140625 0.859375 0.03125 0.921875 -0.09375 C 0.992188 -0.21875 1.054688 -0.347656 1.109375 -0.484375 C 1.128906 -0.523438 1.144531 -0.570312 1.15625 -0.625 C 1.132812 -0.601562 1.109375 -0.570312 1.078125 -0.53125 C 1.054688 -0.5 1.035156 -0.460938 1.015625 -0.421875 C 0.816406 -0.128906 0.664062 0.015625 0.5625 0.015625 C 0.539062 0.015625 0.507812 0.0078125 0.46875 0 C 0.4375 -0.0078125 0.40625 -0.03125 0.375 -0.0625 C 0.351562 -0.09375 0.34375 -0.128906 0.34375 -0.171875 C 0.34375 -0.222656 0.359375 -0.285156 0.390625 -0.359375 C 0.421875 -0.429688 0.472656 -0.546875 0.546875 -0.703125 C 0.597656 -0.804688 0.632812 -0.878906 0.65625 -0.921875 C 0.65625 -0.941406 0.65625 -0.957031 0.65625 -0.96875 C 0.65625 -0.976562 0.65625 -0.984375 0.65625 -0.984375 C 0.65625 -0.992188 0.648438 -1 0.640625 -1 C 0.609375 -1 0.5625 -0.96875 0.5 -0.90625 C 0.445312 -0.851562 0.394531 -0.785156 0.34375 -0.703125 L 0.171875 -0.4375 C 0.148438 -0.425781 0.132812 -0.410156 0.125 -0.390625 C 0.113281 -0.378906 0.101562 -0.375 0.09375 -0.375 C 0.0820312 -0.375 0.0703125 -0.375 0.0625 -0.375 C 0.0625 -0.382812 0.0625 -0.394531 0.0625 -0.40625 C 0.0625 -0.414062 0.0664062 -0.425781 0.078125 -0.4375 C 0.273438 -0.757812 0.414062 -0.984375 0.5 -1.109375 C 0.507812 -1.117188 0.523438 -1.125 0.546875 -1.125 C 0.566406 -1.132812 0.585938 -1.140625 0.609375 -1.140625 C 0.648438 -1.140625 0.6875 -1.128906 0.71875 -1.109375 C 0.757812 -1.097656 0.789062 -1.078125 0.8125 -1.046875 C 0.84375 -1.023438 0.859375 -1 0.859375 -0.96875 C 0.859375 -0.9375 0.847656 -0.898438 0.828125 -0.859375 C 0.816406 -0.828125 0.796875 -0.785156 0.765625 -0.734375 C 0.722656 -0.648438 0.675781 -0.5625 0.625 -0.46875 C 0.601562 -0.414062 0.578125 -0.351562 0.546875 -0.28125 C 0.515625 -0.207031 0.5 -0.148438 0.5 -0.109375 C 0.5 -0.0859375 0.507812 -0.078125 0.53125 -0.078125 C 0.570312 -0.078125 0.640625 -0.117188 0.734375 -0.203125 C 0.828125 -0.296875 0.90625 -0.390625 0.96875 -0.484375 C 1.039062 -0.578125 1.09375 -0.648438 1.125 -0.703125 C 1.15625 -0.753906 1.171875 -0.796875 1.171875 -0.828125 C 1.171875 -0.847656 1.171875 -0.863281 1.171875 -0.875 C 1.191406 -0.875 1.21875 -0.867188 1.25 -0.859375 C 1.28125 -0.847656 1.304688 -0.832031 1.328125 -0.8125 C 1.347656 -0.789062 1.359375 -0.765625 1.359375 -0.734375 C 1.359375 -0.628906 1.28125 -0.425781 1.125 -0.125 C 0.976562 0.164062 0.8125 0.429688 0.625 0.671875 C 0.445312 0.921875 0.304688 1.046875 0.203125 1.046875 Z M 0.203125 1.046875 "/></g></g></g></svg>